<svg width="1280" height="304" viewBox="0 0 1280 304" fill="none" xmlns="http://www.w3.org/2000/svg">
<g clip-path="url(#clip0_689_2)">
<path d="M206.5 304.4H0.7C0.3 304.4 0 304.1 0 303.7C0 303.3 0.3 303 0.7 303H206.5C206.9 303 207.2 303.3 207.2 303.7C207.1 304 206.8 304.4 206.5 304.4Z" fill="#51B6FF"/>
<path d="M122.8 163.2C122.4 163.2 122.1 162.9 122.1 162.5V157C122.1 156.6 122.4 156.3 122.8 156.3C123.2 156.3 123.5 156.6 123.5 157V162.5C123.6 162.9 123.2 163.2 122.8 163.2Z" fill="#51B6FF"/>
<path d="M128.4 163.3C128 163.3 127.7 163 127.7 162.6V157C127.7 156.6 128 156.3 128.4 156.3C128.8 156.3 129.1 156.6 129.1 157V162.6C129.2 163 128.8 163.3 128.4 163.3Z" fill="#51B6FF"/>
<path d="M134.2 163.3C133.8 163.3 133.5 163 133.5 162.6V157.1C133.5 156.7 133.8 156.4 134.2 156.4C134.6 156.4 134.9 156.7 134.9 157.1V162.6C134.9 163 134.6 163.3 134.2 163.3Z" fill="#51B6FF"/>
<path d="M140 163.5C139.6 163.5 139.3 163.2 139.3 162.8V157.3C139.3 156.9 139.6 156.6 140 156.6C140.4 156.6 140.7 156.9 140.7 157.3V162.8C140.7 163.2 140.4 163.5 140 163.5Z" fill="#51B6FF"/>
<path d="M87.3004 169.4H175.5V150.3H87.3004V169.4ZM176.2 170.9H86.6004C86.2004 170.9 85.9004 170.6 85.9004 170.2V149.7C85.9004 149.3 86.2004 149 86.6004 149H176.2C176.6 149 176.9 149.3 176.9 149.7V170.2C177 170.5 176.6 170.9 176.2 170.9Z" fill="#51B6FF"/>
<path d="M108.5 145.2H154.4V148.9H108.5V145.2ZM155.1 143.7H107.8C107.4 143.7 107.1 144 107.1 144.4V149.6C107.1 150 107.4 150.3 107.8 150.3H155.1C155.5 150.3 155.8 150 155.8 149.6V144.4C155.8 144 155.5 143.7 155.1 143.7Z" fill="#51B6FF"/>
<path d="M122.2 140H140.5V143.7H122.2V140ZM141.3 138.5H121.5C121.1 138.5 120.8 138.8 120.8 139.2V144.4C120.8 144.8 121.1 145.1 121.5 145.1H141.3C141.7 145.1 142 144.8 142 144.4V139.2C142 138.8 141.7 138.5 141.3 138.5Z" fill="#51B6FF"/>
<path d="M77.6998 178.4H184.9V170.9H77.6998V178.4ZM185.7 179.9H76.9998C76.5998 179.9 76.2998 179.6 76.2998 179.2V170.2C76.2998 169.8 76.5998 169.5 76.9998 169.5H185.7C186.1 169.5 186.4 169.8 186.4 170.2V179.2C186.4 179.6 186.1 179.9 185.7 179.9Z" fill="#51B6FF"/>
<path d="M74.6998 190.4H188V179.9H74.6998V190.4ZM188.8 191.9H73.9998C73.5998 191.9 73.2998 191.6 73.2998 191.2V179.2C73.2998 178.8 73.5998 178.5 73.9998 178.5H188.8C189.2 178.5 189.5 178.8 189.5 179.2V191.2C189.5 191.5 189.2 191.9 188.8 191.9Z" fill="#51B6FF"/>
<path d="M70.9002 194.4H191.7L193.7 191.9H68.8002L70.9002 194.4ZM192.2 195.9H70.6002C70.4002 195.9 70.2002 195.8 70.1002 195.7L70.0002 195.5L66.9002 191.8C66.8002 191.7 66.7002 191.5 66.7002 191.3C66.7002 190.9 67.0002 190.4 67.4002 190.4H195C195.2 190.4 195.4 190.5 195.5 190.6L195.6 190.7C195.9 191 195.9 191.4 195.7 191.7L192.8 195.3C192.7 195.6 192.5 195.9 192.2 195.9Z" fill="#51B6FF"/>
<path d="M73.4 201.8H186.7V196H73.4V201.8ZM187.5 203.3H72.7C72.3 203.3 72 203 72 202.6V195.3C72 194.9 72.3 194.6 72.7 194.6H187.5C187.9 194.6 188.2 194.9 188.2 195.3V202.5C188.2 202.9 187.9 203.3 187.5 203.3Z" fill="#51B6FF"/>
<path d="M104.3 302.7H73.4V203.3H104.3V302.7ZM105.1 201.8H72.7C72.3 201.8 72 202.1 72 202.5V303.5C72 303.9 72.3 304.2 72.7 304.2H105.1C105.5 304.2 105.8 303.9 105.8 303.5V202.5C105.8 202.1 105.5 201.8 105.1 201.8Z" fill="#51B6FF"/>
<path d="M154.8 203.3V219.2C155 219.9 155.3 220.6 155.4 221.3C155.4 221.4 155.5 221.5 155.5 221.7C155.6 222.1 155.7 222.4 155.7 222.8C155.7 222.9 155.8 223.1 155.8 223.2C155.9 223.9 156 224.7 156.1 225.4C156.1 225.6 156.1 225.8 156.1 225.9C156.1 226.1 156.1 226.3 156.1 226.6C156.1 226.7 156.1 226.9 156.1 227C156.1 227.1 156.1 227.3 156.1 227.4C156.1 227.6 156.1 227.8 156.1 228V203.3H154.8ZM187.2 302.7H156.3V203.3H187.2V302.7ZM188.2 201.8C188.1 201.8 188 201.7 187.9 201.7H155.5C155.1 201.7 154.8 202 154.8 202.4V303.4C154.8 303.8 155.1 304.1 155.5 304.1H187.9C188.3 304.1 188.6 303.8 188.6 303.4V202.4C188.6 202.2 188.5 202 188.2 201.8ZM154.8 203.3V219.2C155 219.9 155.3 220.6 155.4 221.3C155.4 221.4 155.5 221.5 155.5 221.7C155.6 222.1 155.7 222.4 155.7 222.8C155.7 222.9 155.8 223.1 155.8 223.2C155.9 223.9 156 224.7 156.1 225.4C156.1 225.6 156.1 225.8 156.1 225.9C156.1 226.1 156.1 226.3 156.1 226.6C156.1 226.7 156.1 226.9 156.1 227C156.1 227.1 156.1 227.3 156.1 227.4C156.1 227.6 156.1 227.8 156.1 228V203.3H154.8Z" fill="#51B6FF"/>
<path d="M88.9002 217.6C86.0002 217.6 83.7002 215.3 83.7002 212.4C83.7002 209.5 86.0002 207.2 88.9002 207.2C91.7002 207.2 93.9002 209.5 93.9002 212.4C93.9002 215.3 91.8002 217.6 88.9002 217.6ZM88.9002 205.8C85.2002 205.8 82.2002 208.8 82.2002 212.5C82.2002 216.2 85.2002 219.2 88.9002 219.2C92.5002 219.2 95.4002 216.3 95.4002 212.5C95.5002 208.7 92.6002 205.8 88.9002 205.8Z" fill="#51B6FF"/>
<path d="M173.1 217.6C170.2 217.6 167.9 215.3 167.9 212.4C167.9 209.5 170.2 207.2 173.1 207.2C175.9 207.2 178.1 209.5 178.1 212.4C178.1 215.3 175.9 217.6 173.1 217.6ZM173.1 205.8C169.4 205.8 166.4 208.8 166.4 212.5C166.4 216.2 169.4 219.2 173.1 219.2C176.7 219.2 179.6 216.3 179.6 212.5C179.6 208.7 176.8 205.8 173.1 205.8Z" fill="#51B6FF"/>
<path d="M115.6 164.2H147.1V155.5H115.6V164.2ZM147.8 165.7H114.8C114.4 165.7 114.1 165.4 114.1 165V154.8C114.1 154.4 114.4 154.1 114.8 154.1H147.8C148.2 154.1 148.5 154.4 148.5 154.8V165C148.6 165.4 148.2 165.7 147.8 165.7Z" fill="#51B6FF"/>
<path d="M105.5 155.9C103.4 155.9 101.7 157.6 101.7 159.7C101.7 161.8 103.4 163.5 105.5 163.5C107.6 163.5 109.3 161.8 109.3 159.7C109.4 157.7 107.6 155.9 105.5 155.9ZM105.5 165.1C102.6 165.1 100.2 162.7 100.2 159.8C100.2 156.9 102.6 154.5 105.5 154.5C108.4 154.5 110.8 156.9 110.8 159.8C110.8 162.7 108.4 165.1 105.5 165.1Z" fill="#51B6FF"/>
<path d="M157.4 155.9C155.2 155.9 153.6 157.6 153.6 159.7C153.6 161.9 155.3 163.5 157.4 163.5C159.5 163.5 161.2 161.8 161.2 159.7C161.3 157.7 159.6 155.9 157.4 155.9ZM157.4 165.1C154.4 165.1 152.1 162.8 152.1 159.8C152.1 156.8 154.4 154.5 157.4 154.5C160.3 154.5 162.7 156.9 162.7 159.8C162.8 162.7 160.4 165.1 157.4 165.1Z" fill="#51B6FF"/>
<path d="M99.4002 229.4H78.4002C78.0002 229.4 77.7002 229.1 77.7002 228.7C77.7002 228.3 78.0002 228 78.4002 228H99.4002C99.8002 228 100.1 228.3 100.1 228.7C100.2 229.1 99.9002 229.4 99.4002 229.4Z" fill="#51B6FF"/>
<path d="M99.9004 252.2H78.1004C77.7004 252.2 77.4004 251.9 77.4004 251.5C77.4004 251.1 77.7004 250.8 78.1004 250.8H99.8004C100.2 250.8 100.5 251.1 100.5 251.5C100.6 251.9 100.3 252.2 99.9004 252.2Z" fill="#51B6FF"/>
<path d="M99.6002 292.4H77.9002C77.5002 292.4 77.2002 292.1 77.2002 291.7C77.2002 291.3 77.5002 291 77.9002 291H99.6002C100 291 100.3 291.3 100.3 291.7C100.3 292.1 100 292.4 99.6002 292.4Z" fill="#51B6FF"/>
<path d="M78.6002 223.5H99.2002V302.7H78.6002V223.5ZM99.9002 222H77.9002C77.5002 222 77.2002 222.3 77.2002 222.7V303.4C77.2002 303.8 77.5002 304.1 77.9002 304.1H99.9002C100.3 304.1 100.6 303.8 100.6 303.4V222.7C100.6 222.4 100.3 222 99.9002 222Z" fill="#51B6FF"/>
<path d="M95.2 243H82.4V236.2H95.1V243H95.2ZM95.9 234.7H81.7C81.3 234.7 81 235 81 235.4V243.7C81 244.1 81.3 244.4 81.7 244.4H95.9C96.3 244.4 96.6 244.1 96.6 243.7V235.4C96.6 235.1 96.3 234.7 95.9 234.7Z" fill="#51B6FF"/>
<path d="M182.6 229.4H161.2C160.8 229.4 160.5 229.1 160.5 228.7C160.5 228.3 160.8 228 161.2 228H182.6C183 228 183.3 228.3 183.3 228.7C183.3 229.1 183 229.4 182.6 229.4Z" fill="#51B6FF"/>
<path d="M182.7 252.2H160.8C160.4 252.2 160.1 251.9 160.1 251.5C160.1 251.1 160.4 250.8 160.8 250.8H182.7C183.1 250.8 183.4 251.1 183.4 251.5C183.5 251.9 183.1 252.2 182.7 252.2Z" fill="#51B6FF"/>
<path d="M182.7 292.4H161.1C160.7 292.4 160.4 292.1 160.4 291.7C160.4 291.3 160.7 291 161.1 291H182.7C183.1 291 183.4 291.3 183.4 291.7C183.5 292.1 183.1 292.4 182.7 292.4Z" fill="#51B6FF"/>
<path d="M161.6 223.5H182V302.7H161.6V223.5ZM182.7 222H160.8C160.4 222 160.1 222.3 160.1 222.7V303.4C160.1 303.8 160.4 304.1 160.8 304.1H182.7C183.1 304.1 183.4 303.8 183.4 303.4V222.7C183.5 222.4 183.1 222 182.7 222Z" fill="#51B6FF"/>
<path d="M178.1 243H165.4V236.2H178.1V243ZM178.9 234.7H164.7C164.3 234.7 164 235 164 235.4V243.7C164 244.1 164.3 244.4 164.7 244.4H178.9C179.3 244.4 179.6 244.1 179.6 243.7V235.4C179.6 235.1 179.3 234.7 178.9 234.7Z" fill="#51B6FF"/>
<path d="M128.1 211.5H133.2L134.2 203.2H127.1L128.1 211.5ZM133.8 213H127.4C127 213 126.7 212.7 126.7 212.4L125.5 202.6C125.5 202.4 125.5 202.2 125.7 202C125.8 201.8 126 201.8 126.3 201.8H135C135.2 201.8 135.4 201.9 135.6 202C135.7 202.2 135.8 202.4 135.8 202.6L134.6 212.4C134.5 212.7 134.1 213 133.8 213Z" fill="#51B6FF"/>
<path d="M105.8 302.7H154.8V227.8C154.8 214.3 143.9 203.3 130.4 203.3C116.9 203.3 105.8 214.3 105.8 227.8V302.7ZM155.5 304.2H105.1C104.7 304.2 104.4 303.9 104.4 303.5V227.8C104.4 213.5 116.1 201.8 130.4 201.8C144.7 201.8 156.3 213.5 156.3 227.8V303.5C156.2 303.9 155.9 304.2 155.5 304.2Z" fill="#51B6FF"/>
<path d="M150 304.4H110.5C110.1 304.4 109.8 304.1 109.8 303.7V229.6C109.8 219.7 117.1 211.1 126.8 209.5C127.2 209.5 127.6 209.7 127.6 210.1C127.7 210.5 127.4 210.9 127 210.9C118 212.4 111.2 220.4 111.2 229.5V302.8H149.2V229.5C149.2 220.7 142.9 212.9 134.1 211C133.7 210.9 133.5 210.5 133.5 210.1C133.6 209.7 134 209.4 134.4 209.5C143.8 211.5 150.7 219.9 150.7 229.4V303.5C150.8 304 150.4 304.4 150 304.4Z" fill="#51B6FF"/>
<path d="M217.3 213.6C216.9 213.6 216.6 213.3 216.6 212.9V203C216.6 202.6 216.9 202.3 217.3 202.3C217.7 202.3 218 202.6 218 203V212.9C218.1 213.3 217.7 213.6 217.3 213.6ZM228.6 213.6C228.2 213.6 227.9 213.3 227.9 212.9L227.6 203C227.6 202.6 227.9 202.3 228.3 202.2C228.7 202.2 229 202.5 229.1 202.9L229.4 212.8C229.3 213.3 229 213.6 228.6 213.6ZM229.5 243.6C229.1 243.6 228.8 243.3 228.8 242.9L227.9 214.8C227.9 214.4 228.2 214 228.6 214C229 214 229.3 214.3 229.3 214.7L230.2 242.8C230.2 243.3 229.9 243.6 229.5 243.6ZM216.2 243.6C215.8 243.6 215.4 243.2 215.5 242.8L216.5 214.7C216.5 214.3 216.8 214 217.2 214C217.6 214 217.9 214.4 217.9 214.8L216.9 242.9C216.9 243.3 216.5 243.6 216.2 243.6ZM215.1 273.2C214.7 273.2 214.3 272.8 214.4 272.4L215.3 244.9C215.3 244.5 215.6 244.2 216 244.2C216.4 244.2 216.7 244.6 216.7 245L215.8 272.5C215.8 272.9 215.5 273.2 215.1 273.2ZM230.2 273.2C229.8 273.2 229.5 272.9 229.5 272.5L228.8 245C228.8 244.6 229.1 244.3 229.5 244.2C229.9 244.2 230.3 244.5 230.3 244.9L231 272.4C231 272.8 230.6 273.2 230.2 273.2ZM230.9 303.9C230.5 303.9 230.2 303.6 230.2 303.2L229.5 274.8C229.5 274.4 229.8 274 230.2 274C230.6 274 230.9 274.3 230.9 274.7L231.6 303.1C231.7 303.6 231.4 303.9 230.9 303.9ZM214.1 303.9C213.7 303.9 213.3 303.5 213.4 303.1L214.4 274.7C214.4 274.3 214.7 273.9 215.2 274C215.6 274 215.9 274.4 215.9 274.8L214.9 303.2C214.8 303.6 214.5 303.9 214.1 303.9Z" fill="#51B6FF"/>
<path d="M221 195.2C220.9 195.2 220.9 195.2 221 195.2C220.9 195.3 220.9 195.3 220.8 195.3C217.2 197.2 218 200.3 218.1 200.7C218.1 200.9 218.1 201 218.1 201.2C218 201.4 217.8 201.6 217.6 201.6C217.5 201.6 217.5 201.6 217.4 201.6C217.1 201.6 216.8 201.4 216.7 201.2V201.1C216.2 199.5 216.4 196.3 219.8 194.3C219.9 194.2 220.1 194.1 220.2 194.1C220.5 193.9 221 194.1 221.2 194.4C221.2 194.6 221.2 195 221 195.2Z" fill="#51B6FF"/>
<path d="M220.3 195.4C220 195.4 219.7 195.2 219.6 194.9C219.5 194.5 219.7 194.1 220.1 194C220.1 194 221.3 193.6 222.1 192.6C222.4 192.3 222.8 192.3 223.1 192.5C223.4 192.8 223.4 193.2 223.2 193.5C222 194.8 220.6 195.3 220.5 195.3C220.4 195.4 220.4 195.4 220.3 195.4Z" fill="#51B6FF"/>
<path d="M225.3 195.4C225.2 195.4 225.1 195.4 225 195.3C224.8 195.2 223.1 194.3 222.3 193.5C222 193.2 222 192.7 222.3 192.5C222.6 192.2 223.1 192.2 223.3 192.5C223.8 193 225.2 193.8 225.6 194C226 194.2 226.1 194.6 225.9 195C225.9 195.3 225.6 195.4 225.3 195.4Z" fill="#51B6FF"/>
<path d="M225.7 194.9C225.5 195.2 225.2 195.4 224.8 195.3H224.7C224.6 195.3 224.5 195.2 224.4 195.2C223.1 194.7 221.6 195.1 220.9 195.4H220.8C220.7 195.4 220.6 195.5 220.6 195.5H220.5H220.4H220.3H220.2H220.1C220.1 195.5 220.1 195.5 220 195.5C220 195.5 220 195.5 219.9 195.5C219.9 195.5 219.8 195.5 219.8 195.4C219.8 195.4 219.8 195.4 219.7 195.3V195.2C219.7 195.2 219.7 195.2 219.7 195.1V195V194.9V194.8V194.7V194.6C219.7 194.6 219.7 194.5 219.8 194.5C219.8 194.5 219.8 194.4 219.9 194.4C219.9 194.4 219.9 194.4 220 194.3C220 194.3 220 194.3 220.1 194.3C220.1 194.3 220.1 194.3 220.2 194.3C220.2 194.3 220.2 194.3 220.3 194.3C220.3 194.3 220.3 194.3 220.4 194.3C220.4 194.3 220.4 194.3 220.5 194.3H220.6C221 194.2 221.6 193.9 222.4 193.8C222.8 193.8 223.2 193.7 223.6 193.7C223.7 193.7 223.7 193.7 223.8 193.7C224.4 193.7 225.1 193.9 225.6 194.2C225.7 194.3 225.9 194.4 225.9 194.5C225.8 194.4 225.8 194.6 225.7 194.9Z" fill="#51B6FF"/>
<path d="M229 201V201.1C228.9 201.4 228.6 201.5 228.3 201.5C228.3 201.5 228.2 201.5 228.1 201.5C227.9 201.4 227.7 201.3 227.6 201.1C227.5 201 227.5 200.8 227.6 200.6C228.4 197.1 224.8 195.2 224.7 195.2C224.6 195.1 224.5 195 224.4 194.9C224.4 194.9 224.4 194.9 224.4 194.8C224.3 194.6 224.3 194.4 224.4 194.1C224.6 193.7 225 193.6 225.4 193.8C225.5 193.9 225.6 193.9 225.7 194C225.8 194.1 225.9 194.1 226 194.2C227.6 195.5 229.7 197.8 229 201Z" fill="#51B6FF"/>
<path d="M222.7 190.8C222.5 190.9 222.3 191.1 222.3 191.4H222.7V190.8ZM223 191.4H223.3C223.3 191.1 223.1 190.8 222.8 190.8H222.7V191.4V191.3L222.8 191.4H223ZM222.7 191.7L222.5 191.9C222.6 192 222.7 192 222.7 192V191.7ZM222.7 192.3C222.3 192.3 221.8 192 221.8 191.4C221.8 191.2 221.9 191 222 190.9L222.1 190.8C222.5 190.4 223.3 190.8 223.4 190.9C223.5 191 223.6 191.2 223.6 191.4C223.7 191.5 223.7 192.3 222.7 192.3Z" fill="#51B6FF"/>
<path d="M222.7 191.4C222.8 191.4 222.8 191.4 222.7 191.4ZM223 192L222.9 192.6C223 192.6 223.3 192.4 223.3 192C223.3 191.7 223.1 191.5 222.9 191.4L223 192ZM222.8 192.9C221.8 192.9 221.8 192.1 221.8 192C221.8 191.9 221.8 191.1 222.8 191.1C223.4 191.1 223.7 191.4 223.7 192C223.7 192.6 223.4 192.9 222.8 192.9Z" fill="#51B6FF"/>
<path d="M223.1 192.8H222.8V192.5L223.1 192.8ZM222.4 192.8C222.4 193.1 222.6 193.2 222.8 193.2C223 193.2 223.2 193 223.2 192.7C223.2 192.4 222.9 192.1 222.8 192.1C222.8 192.1 222.6 192.1 222.6 192.2L222.8 192.4V192.7H222.4V192.8ZM222.8 193.6C222 193.6 221.8 193.1 221.8 192.7C221.8 191.9 222.3 191.7 222.8 191.7C223.4 191.7 223.8 192.2 223.8 192.7C223.8 192.9 223.7 193.1 223.6 193.2C223.5 193.4 223.2 193.6 222.8 193.6Z" fill="#51B6FF"/>
<path d="M222.7 192C222.6 192 222.6 192 222.5 192C222.1 191.9 221.9 191.5 222 191.1L222.1 190.5C222.2 190.1 222.6 189.9 223 190C223.4 190.1 223.6 190.5 223.5 190.9L223.4 191.5C223.3 191.8 223 192 222.7 192Z" fill="#51B6FF"/>
<path d="M327.6 167.2C327.4 167.6 327.2 168.1 326.9 168.5C324.9 171.5 320.5 174.4 315.5 177.7C315.3 177.8 315.2 177.9 315 178C313 179.3 311 180.7 308.9 182.1C298.5 189.6 288.7 199.6 294.9 215.9C295.1 216.4 295.3 216.9 295.5 217.4C296.4 219.4 297.5 221.5 298.8 223.8C298.8 223.9 298.9 223.9 298.9 224C298.9 224.1 299 224.1 299 224.2C299.1 224.5 299 224.8 298.7 225C298.6 225.1 298.4 225.1 298.3 225.1C298.1 225.1 297.9 225 297.7 224.8C297.7 224.8 297.7 224.8 297.7 224.7C297.7 224.6 297.6 224.6 297.6 224.5C283.9 202.3 295.6 189.8 308.1 180.9C308.1 180.9 308.1 180.9 308.2 180.9C310.4 179.3 312.7 177.8 314.8 176.4C320 173 324.6 170 326.1 167C326.2 166.9 326.2 166.7 326.3 166.6C326.3 166.5 326.4 166.5 326.4 166.4L326.5 166.3C326.6 166.2 326.7 166.1 326.9 166.1C327 166.1 327.1 166.1 327.1 166.1C327.1 166.1 327.1 166.1 327.2 166.1C327.2 166.1 327.2 166.1 327.3 166.1C327.4 166.2 327.5 166.2 327.6 166.3C327.6 166.3 327.6 166.3 327.6 166.4C327.6 166.4 327.6 166.5 327.7 166.5C327.7 166.8 327.7 167 327.6 167.2Z" fill="#51B6FF"/>
<path d="M356.3 224.2C356.2 224.3 356.2 224.4 356.1 224.5C356.1 224.6 356 224.6 356 224.7C355.9 224.9 355.6 225.1 355.4 225.1C355.3 225.1 355.1 225.1 355 225C355 225 355 225 354.9 225C354.6 224.8 354.5 224.3 354.7 224C354.7 223.9 354.8 223.9 354.8 223.8C356.2 221.6 357.3 219.5 358.1 217.4C358.3 216.9 358.5 216.4 358.7 215.9C364.3 200.9 356.5 191.2 347.2 184C344.6 181.9 341.8 180.1 339.2 178.4C338.9 178.2 338.6 178 338.2 177.8C333.2 174.5 328.8 171.6 326.9 168.6C326.7 168.3 326.5 168 326.4 167.7C326.3 167.6 326.3 167.5 326.2 167.3C326.1 167.1 326.1 166.9 326.2 166.7C326.2 166.6 326.3 166.6 326.3 166.5L326.4 166.4C326.5 166.3 326.5 166.3 326.6 166.3C326.7 166.3 326.7 166.3 326.8 166.3C326.9 166.3 327 166.3 327 166.3C327 166.3 327 166.3 327.1 166.3C327.3 166.3 327.4 166.4 327.5 166.6C327.5 166.6 327.5 166.6 327.5 166.7C327.5 166.7 327.5 166.8 327.6 166.8C328.8 169.9 333.6 173 339 176.6C353 185.6 372.1 198.2 356.3 224.2Z" fill="#51B6FF"/>
<path d="M355.6 232.8H299.1C298.7 232.8 298.4 232.5 298.4 232.1C298.4 231.7 298.7 231.4 299.1 231.4H355.6C356 231.4 356.3 231.7 356.3 232.1C356.4 232.5 356 232.8 355.6 232.8Z" fill="#51B6FF"/>
<path d="M299.3 224.5V302.7V302.8C299.2 303.1 298.9 303.4 298.6 303.4C298.2 303.4 297.9 303.1 297.9 302.8V302.7V224.5C297.9 224.1 298.2 223.8 298.6 223.8C298.8 223.8 299 223.9 299.2 224.1C299.2 224.2 299.3 224.4 299.3 224.5Z" fill="#51B6FF"/>
<path d="M359.9 216.6C359.9 217 359.6 217.3 359.2 217.3H294.7C294.3 217.3 294 217 294 216.6C294 216.2 294.3 215.9 294.7 215.9H359.2C359.6 215.8 359.9 216.2 359.9 216.6Z" fill="#51B6FF"/>
<path d="M355.3 225.1H298.3C297.9 225.1 297.6 224.8 297.6 224.4C297.6 224 297.9 223.7 298.3 223.7H355.3C355.7 223.7 356 224 356 224.4C356.1 224.8 355.7 225.1 355.3 225.1Z" fill="#51B6FF"/>
<path d="M356.4 224.5V302.7V302.8C356.3 303.1 356 303.4 355.7 303.4C355.3 303.4 355 303.1 355 302.8V302.7V224.5C355 224.1 355.3 223.8 355.7 223.8C355.8 223.8 355.8 223.8 355.9 223.8C356.1 223.8 356.3 224 356.4 224.1C356.3 224.3 356.4 224.4 356.4 224.5Z" fill="#51B6FF"/>
<path d="M307.1 303.5C306.7 303.5 306.4 303.2 306.4 302.8L306.3 258.9C306.1 244.1 326.4 237.2 327.2 236.9C327.6 236.8 328 237 328.1 237.4C328.2 237.8 328 238.2 327.6 238.3C326.8 238.6 307.5 245.1 307.7 258.9L307.8 302.8C307.9 303.1 307.5 303.5 307.1 303.5Z" fill="#51B6FF"/>
<path d="M347.6 304.2C347.2 304.2 346.9 303.9 346.9 303.5L347 258.9C347 245.1 327.9 238.6 327.1 238.3C326.7 238.2 326.5 237.8 326.6 237.4C326.7 237 327.2 236.8 327.5 236.9C328.4 237.2 348.4 244.1 348.4 258.9L348.3 303.5C348.4 303.9 348.1 304.2 347.6 304.2Z" fill="#51B6FF"/>
<path d="M348.1 182.7L347.3 183.9C341.3 179.8 334.1 177.7 326.7 177.7C320.5 177.7 314.5 179.2 309.1 182.1C309 182.1 309 182.2 308.9 182.2L308.2 180.9C308.2 180.9 308.2 180.9 308.3 180.9C310.5 179.7 312.8 178.7 315.2 178C318.9 176.9 322.8 176.3 326.7 176.3C331 176.3 335.3 177 339.3 178.4C342.3 179.3 345.3 180.8 348.1 182.7Z" fill="#51B6FF"/>
<path d="M326.8 167.6C326.4 167.6 326.1 167.3 326.1 166.9V159.3C326.1 158.9 326.4 158.6 326.8 158.6C327.2 158.6 327.5 158.9 327.5 159.3V166.8C327.5 167.3 327.2 167.6 326.8 167.6Z" fill="#51B6FF"/>
<path d="M277.7 233C277.5 233 277.2 232.9 277.1 232.6C272 224.4 278.2 220.3 282.3 217.6C283.8 216.6 285.2 215.7 285.5 214.9C285.7 214.5 286.1 214.3 286.5 214.5C286.9 214.7 287.1 215.1 286.9 215.5C286.4 216.7 285 217.7 283.1 218.9C278.9 221.7 274 224.9 278.4 231.8C278.6 232.1 278.5 232.6 278.2 232.8C278 232.9 277.8 233 277.7 233Z" fill="#51B6FF"/>
<path d="M294.5 233C294.4 233 294.2 233 294.1 232.9C293.8 232.7 293.6 232.2 293.9 231.9C298.2 225 293.4 221.8 289.2 219C287.4 217.8 285.9 216.8 285.4 215.6C285.3 215.2 285.4 214.8 285.8 214.6C286.2 214.5 286.6 214.6 286.8 215C287.1 215.8 288.5 216.7 290 217.7C294.1 220.4 300.3 224.5 295.2 232.7C295 232.8 294.8 233 294.5 233Z" fill="#51B6FF"/>
<path d="M274.9 233.3C274.5 233.3 274.2 233 274.2 232.7C274.1 232.3 274.4 231.9 274.8 231.9C281.8 230.9 289 230.9 297 231.9C297.4 231.9 297.7 232.3 297.6 232.7C297.6 233.1 297.2 233.3 296.8 233.3C288.9 232.3 281.8 232.3 275 233.3C274.9 233.3 274.9 233.3 274.9 233.3Z" fill="#51B6FF"/>
<path d="M291.8 220.7C288.6 218.6 284.9 218.2 281 220.3L280.3 219C284.7 216.6 288.9 217 292.6 219.5L291.8 220.7Z" fill="#51B6FF"/>
<path d="M286.1 216C285.7 216 285.4 215.7 285.4 215.3V213.1C285.4 212.7 285.7 212.4 286.1 212.4C286.5 212.4 286.8 212.7 286.8 213.1V215.3C286.9 215.6 286.5 216 286.1 216Z" fill="#51B6FF"/>
<path d="M275.8 245.8C275.4 245.8 275.1 245.5 275.1 245.1V232.5C275.1 232.1 275.4 231.8 275.8 231.8C276.2 231.8 276.5 232.1 276.5 232.5V245.1C276.5 245.5 276.2 245.8 275.8 245.8Z" fill="#51B6FF"/>
<path d="M268.5 247.3C268.1 247.3 267.8 247 267.8 246.6C267.8 246.2 268 245.8 268.5 245.8L280.3 244.5L298.1 244.6C298.5 244.6 298.8 244.9 298.8 245.3C298.8 245.7 298.5 246 298.1 246L280.3 245.9L268.5 247.3Z" fill="#51B6FF"/>
<path d="M298.8 250.6C298.8 251 298.5 251.3 298.1 251.3H280.4L269.3 252.4L268.6 252.5C268.6 252.5 268.6 252.5 268.5 252.5C268.1 252.5 267.8 252.2 267.8 251.8C267.8 251.8 267.8 251.8 267.8 251.7C267.8 251.3 268.1 251 268.5 251L269.3 250.9L280.3 249.8H297.8H298.1C298.5 249.8 298.8 250.2 298.8 250.6Z" fill="#51B6FF"/>
<path d="M269.3 246.7V302.7V302.8C269.2 303.1 268.9 303.4 268.6 303.4C268.2 303.4 267.9 303.1 267.9 302.8V302.7V246.7C267.9 246.7 267.9 246.7 267.9 246.6C267.9 246.2 268.3 245.9 268.6 245.9C268.9 246 269.3 246.3 269.3 246.7Z" fill="#51B6FF"/>
<path d="M282.7 257.2C282.6 257.2 282.6 257.2 282.5 257.3C281.1 257.8 275.7 260 275.7 263.9L275.8 276.2V276.9C275.8 277.3 275.5 277.6 275.1 277.7C274.7 277.7 274.4 277.4 274.4 277V276.2L274.3 263.9C274.3 258.8 281 256.3 282.3 255.8H282.4C282.5 255.8 282.6 255.8 282.7 255.8C282.7 255.8 282.7 255.8 282.8 255.8C283 255.9 283.2 256 283.2 256.2C283.2 256.6 283 257 282.7 257.2Z" fill="#51B6FF"/>
<path d="M290.7 263.9V276.9C290.7 277.3 290.4 277.6 290 277.6C289.6 277.6 289.3 277.3 289.3 276.9V263.9C289.3 259.8 283.7 257.7 282.5 257.3C282.4 257.3 282.3 257.2 282.3 257.2C281.9 257.1 281.7 256.7 281.8 256.3C281.9 256 282.1 255.8 282.4 255.8C282.5 255.8 282.6 255.8 282.7 255.8C282.7 255.8 282.7 255.8 282.8 255.8C283.5 256.1 290.7 258.5 290.7 263.9Z" fill="#51B6FF"/>
<path d="M298.1 276.9C298.1 277.1 298 277.4 297.8 277.5C297.7 277.6 297.5 277.7 297.4 277.7H269.9C269.7 277.7 269.4 277.6 269.3 277.4C269.2 277.3 269.2 277.1 269.2 277C269.2 276.8 269.3 276.7 269.3 276.6C269.4 276.4 269.7 276.3 269.9 276.3H297.4C297.6 276.3 297.7 276.4 297.8 276.4C298 276.4 298.1 276.6 298.1 276.9Z" fill="#51B6FF"/>
<path d="M275 302.3C274.6 302.3 274.3 302 274.3 301.6L274.2 289.8C274.2 285.6 279.2 283.3 282.2 282.3C282.6 282.2 283 282.4 283.2 282.8C283.3 283.2 283.2 283.6 282.8 283.7C280.6 284.4 275.8 286.4 275.8 289.8L275.9 301.6C275.8 302 275.4 302.3 275 302.3Z" fill="#51B6FF"/>
<path d="M290 302.3C289.6 302.3 289.3 302 289.3 301.6V289.8C289.3 285.8 282.6 283.8 282.3 283.7C281.9 283.6 281.7 283.2 281.8 282.8C281.9 282.4 282.3 282.2 282.7 282.3C283.5 282.5 290.8 284.7 290.8 289.8V301.6C290.7 302 290.4 302.3 290 302.3Z" fill="#51B6FF"/>
<path d="M230.6 201.9C230.6 202.3 230.3 202.6 229.9 202.6H215.7C215.3 202.6 215 202.3 215 201.9C215 201.5 215.3 201.2 215.7 201.2H229.9C230.3 201.2 230.6 201.5 230.6 201.9Z" fill="#51B6FF"/>
<path d="M231.1 214.5H215C214.6 214.5 214.3 214.2 214.3 213.8C214.3 213.4 214.6 213.1 215 213.1H231.1C231.5 213.1 231.8 213.4 231.8 213.8C231.8 214.2 231.5 214.5 231.1 214.5Z" fill="#51B6FF"/>
<path d="M232.4 244.8H213.3C212.9 244.8 212.6 244.5 212.6 244.1C212.6 243.7 212.9 243.4 213.3 243.4H232.4C232.8 243.4 233.1 243.7 233.1 244.1C233.2 244.5 232.8 244.8 232.4 244.8Z" fill="#51B6FF"/>
<path d="M233 274.5H211.6C211.2 274.5 210.9 274.2 210.9 273.8C210.9 273.4 211.2 273.1 211.6 273.1H233C233.4 273.1 233.7 273.4 233.7 273.8C233.8 274.2 233.4 274.5 233 274.5Z" fill="#51B6FF"/>
<path d="M245.7 230.7C245.3 230.7 245 230.4 245 229.9L245.1 221.9C245.1 221.5 245.4 221.2 245.8 221.2C246.2 221.2 246.5 221.5 246.5 222L246.4 230C246.5 230.4 246.1 230.7 245.7 230.7ZM254.9 230.7C254.5 230.7 254.2 230.4 254.2 230L254 222C254 221.6 254.3 221.3 254.7 221.2C255.1 221.2 255.4 221.5 255.4 221.9L255.6 229.9C255.7 230.4 255.3 230.7 254.9 230.7ZM255.6 255.1C255.2 255.1 254.9 254.8 254.9 254.4L254.2 231.6C254.2 231.2 254.5 230.8 254.9 230.8C255.3 230.8 255.7 231.1 255.7 231.5L256.4 254.3C256.4 254.8 256.1 255.1 255.6 255.1ZM244.8 255.1C244.4 255.1 244 254.7 244.1 254.3L245 231.5C245 231.1 245.3 230.8 245.8 230.8C246.2 230.8 246.5 231.2 246.5 231.6L245.6 254.4C245.6 254.8 245.2 255.1 244.8 255.1ZM244.1 279.1C243.7 279.1 243.3 278.7 243.4 278.3L244.1 256C244.1 255.6 244.5 255.3 244.9 255.3C245.3 255.3 245.6 255.7 245.6 256.1L244.9 278.4C244.8 278.8 244.5 279.1 244.1 279.1ZM256.2 279.1C255.8 279.1 255.5 278.8 255.5 278.4L254.9 256.1C254.9 255.7 255.2 255.3 255.6 255.3C256 255.3 256.3 255.6 256.3 256L257 278.3C257 278.7 256.7 279.1 256.2 279.1ZM243.2 303.9C242.8 303.9 242.4 303.5 242.5 303.1L243.2 280.2C243.2 279.8 243.5 279.5 244 279.5C244.4 279.5 244.7 279.9 244.7 280.3L244 303.2C243.9 303.6 243.6 303.9 243.2 303.9ZM256.8 303.9C256.4 303.9 256.1 303.6 256.1 303.2L255.5 280.3C255.5 279.9 255.8 279.5 256.2 279.5C256.6 279.5 256.9 279.8 256.9 280.2L257.5 303.1C257.6 303.6 257.3 303.9 256.8 303.9Z" fill="#51B6FF"/>
<path d="M245.9 221.1C245.6 221.1 245.3 220.9 245.2 220.6C244.7 219.1 244.8 216.2 248.1 214.7C248.5 214.5 248.9 214.7 249.1 215.1C249.3 215.5 249.1 215.9 248.7 216.1C245.8 217.5 246.5 220 246.6 220.2C246.7 220.6 246.5 221 246.1 221.1C246 221.1 246 221.1 245.9 221.1Z" fill="#51B6FF"/>
<path d="M248.2 216.1C247.9 216.1 247.6 215.9 247.5 215.6C247.3 215.2 247.5 214.8 247.9 214.6C247.9 214.6 248.8 214.2 249.6 213.4C249.9 213.1 250.4 213.1 250.6 213.4C250.9 213.7 250.9 214.2 250.6 214.4C249.6 215.4 248.5 215.9 248.4 215.9C248.4 216.1 248.3 216.1 248.2 216.1Z" fill="#51B6FF"/>
<path d="M252.2 216.1C252.1 216.1 252 216.1 251.9 216C251.7 215.9 250.3 215.2 249.6 214.5C249.3 214.2 249.3 213.7 249.6 213.5C249.9 213.2 250.4 213.2 250.6 213.5C251 213.9 251.9 214.4 252.5 214.7C252.9 214.9 253 215.3 252.8 215.7C252.8 216 252.5 216.1 252.2 216.1Z" fill="#51B6FF"/>
<path d="M251.9 216.1C251.8 216.1 251.6 216.1 251.5 216C250.2 215.2 248.5 216 248.5 216C248.1 216.2 247.7 216 247.5 215.7C247.3 215.3 247.5 214.9 247.8 214.7C247.9 214.6 250.3 213.5 252.2 214.7C252.5 214.9 252.6 215.4 252.4 215.7C252.4 216 252.2 216.1 251.9 216.1Z" fill="#51B6FF"/>
<path d="M254.8 221.1C254.7 221.1 254.7 221.1 254.6 221.1C254.2 221 254 220.6 254 220.2C254.6 217.4 251.9 216.1 251.7 216C251.3 215.8 251.2 215.4 251.4 215C251.6 214.6 252 214.5 252.4 214.7C253.8 215.3 256.1 217.4 255.5 220.5C255.4 220.9 255.1 221.1 254.8 221.1Z" fill="#51B6FF"/>
<path d="M250.3 212.7H250.7C250.7 212.4 250.5 212.1 250.1 212.1V212.7H250.3ZM250.2 213.6C249.8 213.6 249.3 213.3 249.3 212.7C249.3 212.3 249.6 212 250 212C250.4 212 251 212.3 251 212.7C251.1 213.3 250.7 213.6 250.2 213.6Z" fill="#51B6FF"/>
<path d="M249.7 213.3C249.7 213.6 250 213.9 250.2 213.9C250.4 213.9 250.7 213.6 250.7 213.3C250.7 213 250.4 212.7 250.1 212.7C250.1 212.7 249.9 212.7 249.9 212.8L250.4 213.3H249.7ZM250.2 214.2C249.6 214.2 249.3 213.7 249.3 213.3C249.3 212.7 249.6 212.4 250.2 212.4C251.2 212.4 251.2 213.1 251.2 213.3C251.2 213.5 251.1 213.7 251 213.8C250.9 213.9 250.6 214.2 250.2 214.2Z" fill="#51B6FF"/>
<path d="M250.1 213.2C249.9 213.3 249.7 213.5 249.7 213.8H250L250.1 213.2ZM250.2 213.7L250.3 213.1C250.3 213.1 250.3 213.1 250.2 213.1V213.7ZM250.4 213.8L249.9 214.3C250 214.4 250.1 214.4 250.1 214.4C250.4 214.4 250.7 214.2 250.7 213.8H250.4ZM250.2 214.6C249.6 214.6 249.3 214.3 249.3 213.7C249.3 213.3 249.6 212.8 250.2 212.8C250.6 212.8 250.9 213.1 251 213.2C251.1 213.3 251.2 213.5 251.2 213.7C251.2 213.8 251.2 214.6 250.2 214.6Z" fill="#51B6FF"/>
<path d="M250.2 213.3C249.8 213.3 249.5 213 249.5 212.6V212.2C249.5 211.8 249.8 211.5 250.2 211.5C250.6 211.5 250.9 211.8 250.9 212.2V212.6C250.9 213 250.6 213.3 250.2 213.3Z" fill="#51B6FF"/>
<path d="M256.1 221.9H244.4C244 221.9 243.7 221.6 243.7 221.2C243.7 220.8 244 220.5 244.4 220.5H256.1C256.5 220.5 256.8 220.8 256.8 221.2C256.8 221.5 256.5 221.9 256.1 221.9Z" fill="#51B6FF"/>
<path d="M257 231.5H244C243.6 231.5 243.3 231.2 243.3 230.8C243.3 230.4 243.6 230.1 244 230.1H257C257.4 230.1 257.7 230.4 257.7 230.8C257.7 231.2 257.4 231.5 257 231.5Z" fill="#51B6FF"/>
<path d="M258 256H242.6C242.2 256 241.9 255.7 241.9 255.3C241.9 254.9 242.2 254.6 242.6 254.6H258C258.4 254.6 258.7 254.9 258.7 255.3C258.8 255.7 258.4 256 258 256Z" fill="#51B6FF"/>
<path d="M258.5 280.1H241.2C240.8 280.1 240.5 279.8 240.5 279.4C240.5 279 240.8 278.7 241.2 278.7H258.5C258.9 278.7 259.2 279 259.2 279.4C259.2 279.8 258.9 280.1 258.5 280.1Z" fill="#51B6FF"/>
<path d="M437 213.6C436.6 213.6 436.3 213.3 436.3 212.9L436.2 203C436.2 202.6 436.5 202.3 436.9 202.2C437.3 202.2 437.6 202.5 437.6 202.9L437.7 212.8C437.7 213.3 437.4 213.6 437 213.6ZM425.6 213.6C425.2 213.6 424.8 213.2 424.9 212.8L425.2 202.9C425.2 202.5 425.5 202.1 426 202.2C426.4 202.2 426.7 202.6 426.7 203L426.4 212.9C426.3 213.3 426 213.6 425.6 213.6ZM438 243.6C437.6 243.6 437.3 243.3 437.3 242.9L436.3 214.8C436.3 214.4 436.6 214 437 214C437.4 214 437.7 214.3 437.7 214.7L438.7 242.8C438.8 243.2 438.5 243.6 438 243.6ZM424.9 243.6C424.5 243.6 424.1 243.2 424.2 242.8L424.9 214.7C424.9 214.3 425.2 214 425.6 214C426 214 426.3 214.4 426.3 214.8L425.6 242.9C425.6 243.3 425.3 243.6 424.9 243.6ZM439.1 273.2C438.7 273.2 438.4 272.9 438.4 272.5L437.5 245C437.5 244.6 437.8 244.2 438.2 244.2C438.5 244.2 439 244.5 439 244.9L439.9 272.4C439.8 272.8 439.5 273.2 439.1 273.2ZM424.1 273.2C423.7 273.2 423.4 272.9 423.4 272.4L424 244.9C424 244.5 424.3 244.2 424.8 244.2C425.2 244.2 425.5 244.6 425.5 245L424.9 272.5C424.8 272.9 424.5 273.2 424.1 273.2ZM440.1 303.9C439.7 303.9 439.4 303.6 439.4 303.2L438.5 274.8C438.5 274.4 438.8 274 439.2 274C439.6 274 439.9 274.3 439.9 274.7L440.8 303.1C440.8 303.6 440.5 303.9 440.1 303.9ZM423.4 303.9C423 303.9 422.7 303.5 422.7 303.1L423.3 274.7C423.3 274.3 423.6 274 424 274C424.4 274 424.7 274.4 424.7 274.8L424.1 303.2C424.1 303.6 423.8 303.9 423.4 303.9Z" fill="#51B6FF"/>
<path d="M437.5 201.1C437.3 201.5 437.1 201.6 436.8 201.6C436.7 201.6 436.7 201.6 436.6 201.6C436.4 201.5 436.2 201.4 436.1 201.2C436 201.1 436 200.9 436.1 200.7C436.1 200.6 437 197.3 433.4 195.3C433.3 195.3 433.3 195.2 433.3 195.2C433.1 195 433 194.6 433.2 194.3C433.4 193.9 433.8 193.8 434.2 194C434.3 194.1 434.5 194.1 434.6 194.2C437.9 196.2 438 199.5 437.5 201.1Z" fill="#51B6FF"/>
<path d="M433.9 195.4C433.8 195.4 433.7 195.4 433.7 195.4C433.6 195.4 432.2 194.9 431 193.6C430.7 193.3 430.8 192.8 431.1 192.6C431.4 192.3 431.9 192.4 432.1 192.7C433 193.7 434.1 194.1 434.1 194.1C434.5 194.2 434.7 194.6 434.6 195C434.5 195.2 434.2 195.4 433.9 195.4Z" fill="#51B6FF"/>
<path d="M429 195.4C428.7 195.4 428.5 195.3 428.4 195C428.2 194.6 428.3 194.2 428.7 194C428.7 194 430.3 193.1 431.1 192.5C431.4 192.2 431.9 192.3 432.1 192.6C432.4 192.9 432.3 193.4 432 193.6C431.1 194.4 429.4 195.3 429.4 195.3C429.2 195.4 429.1 195.4 429 195.4Z" fill="#51B6FF"/>
<path d="M434.6 194.8V194.9C434.6 194.9 434.6 194.9 434.6 195C434.6 195 434.6 195 434.6 195.1C434.6 195.1 434.6 195.1 434.5 195.2L434.4 195.3C434.4 195.3 434.4 195.3 434.3 195.3C434.3 195.3 434.3 195.3 434.2 195.3H434.1H434H433.9H433.8H433.7C433.7 195.3 433.7 195.3 433.6 195.3C433.6 195.3 433.6 195.3 433.5 195.3H433.4C433.4 195.3 433.3 195.3 433.2 195.2C432.5 195 430.9 194.5 429.7 195.1H429.6C429.6 195.1 429.5 195.1 429.5 195.2C429.2 195.3 428.8 195.2 428.6 194.8C428.5 194.5 428.5 194.2 428.7 194C428.8 193.9 428.8 193.9 428.9 193.8C429.5 193.5 430.1 193.4 430.6 193.3C430.7 193.3 430.7 193.3 430.8 193.3C431.2 193.3 431.7 193.3 432.1 193.4C432.9 193.5 433.6 193.8 434 193.9C434.1 193.9 434.2 194 434.2 194C434.2 194 434.2 194 434.3 194H434.4C434.4 194 434.5 194 434.5 194.1L434.6 194.2C434.6 194.4 434.6 194.6 434.6 194.8Z" fill="#51B6FF"/>
<path d="M429.7 195.1C429.6 195.2 429.5 195.3 429.4 195.3C429.2 195.4 425.8 197.2 426.5 200.7C426.5 200.9 426.5 201 426.5 201.1C426.4 201.3 426.2 201.5 426 201.5C425.9 201.5 425.9 201.5 425.8 201.5C425.5 201.5 425.2 201.3 425.1 201.1V201C424.4 197.6 426.7 195.2 428.3 194.2C428.4 194.1 428.5 194.1 428.6 194C428.6 194 428.7 194 428.7 193.9C429.1 193.7 429.5 193.9 429.7 194.2C429.9 194.6 429.9 194.9 429.7 195.1Z" fill="#51B6FF"/>
<path d="M430.9 191.5C430.9 192.1 432.1 192.2 432.1 191.5H431.6V191.6H431.5L430.9 191.5ZM431.5 192.3C430.9 192.3 430.6 192 430.6 191.4C430.6 191 430.9 190.5 431.5 190.5C432.1 190.5 432.4 191 432.4 191.4C432.4 192 432.1 192.3 431.5 192.3Z" fill="#51B6FF"/>
<path d="M431.5 191.5C431.3 191.6 431.1 191.8 431.1 192.1C431.1 192.4 431.4 192.7 431.6 192.7C431.7 192.7 432 192.5 432 192.1C432 191.8 431.8 191.6 431.6 191.5C431.6 191.4 431.5 191.4 431.5 191.5C431.5 191.4 431.5 191.4 431.5 191.5ZM431.5 192.9C430.5 192.9 430.5 192.2 430.5 192C430.5 191.9 430.5 191.1 431.5 191.1C432.5 191.1 432.5 191.9 432.5 192C432.5 192.1 432.5 192.9 431.5 192.9Z" fill="#51B6FF"/>
<path d="M431.5 192.2C431.5 192.2 431.3 192.2 431.3 192.3L431.5 192.5V192.2ZM431.1 192.8C431.1 193.1 431.3 193.2 431.5 193.2C431.6 193.2 431.8 193 431.8 192.8H431.1ZM431.5 193.6C430.9 193.6 430.6 193.3 430.5 193.2C430.4 193.1 430.3 192.9 430.3 192.7C430.3 192.2 430.7 191.7 431.5 191.7C432.1 191.7 432.5 192.2 432.5 192.7C432.5 192.9 432.4 193.1 432.3 193.2C432.2 193.4 431.9 193.6 431.5 193.6Z" fill="#51B6FF"/>
<path d="M431.5 192C431.1 192 430.8 191.7 430.8 191.3V190.7C430.8 190.3 431.1 190 431.5 190C431.9 190 432.2 190.3 432.2 190.7V191.3C432.3 191.7 431.9 192 431.5 192Z" fill="#51B6FF"/>
<path d="M376.3 233C376.2 233 376 233 375.9 232.9C375.6 232.7 375.4 232.2 375.7 231.9C380 225 375.2 221.8 371 219C369.2 217.8 367.7 216.8 367.2 215.6C367.1 215.2 367.2 214.8 367.6 214.6C368 214.5 368.4 214.6 368.6 215C368.9 215.8 370.3 216.7 371.8 217.7C375.9 220.4 382.1 224.5 377 232.7C376.8 232.8 376.6 233 376.3 233Z" fill="#51B6FF"/>
<path d="M359.5 233C359.3 233 359 232.9 358.9 232.6C353.8 224.4 360 220.3 364.1 217.6C365.6 216.6 367 215.7 367.3 214.9C367.5 214.5 367.9 214.3 368.3 214.5C368.7 214.7 368.9 215.1 368.7 215.5C368.2 216.7 366.8 217.7 364.9 218.9C360.7 221.7 355.8 224.9 360.2 231.8C360.4 232.1 360.3 232.6 360 232.8C359.7 232.9 359.6 233 359.5 233Z" fill="#51B6FF"/>
<path d="M379.1 233.3H379C372.2 232.3 365 232.4 357 233.3C356.6 233.3 356.2 233.1 356.2 232.7C356.2 232.3 356.4 231.9 356.8 231.9C364.9 230.9 372.2 230.9 379.2 231.9C379.6 232 379.9 232.3 379.8 232.7C379.8 233 379.5 233.3 379.1 233.3Z" fill="#51B6FF"/>
<path d="M362.3 220.7L361.5 219.5C365.2 217.1 369.5 216.6 373.8 219L373 220.3C369.2 218.2 365.5 218.6 362.3 220.7Z" fill="#51B6FF"/>
<path d="M367.9 216C367.5 216 367.2 215.7 367.2 215.3V213.1C367.2 212.7 367.5 212.4 367.9 212.4C368.3 212.4 368.6 212.7 368.6 213.1V215.3C368.6 215.6 368.3 216 367.9 216Z" fill="#51B6FF"/>
<path d="M378.3 245.8C377.9 245.8 377.6 245.5 377.6 245.1V232.5C377.6 232.1 377.9 231.8 378.3 231.8C378.7 231.8 379 232.1 379 232.5V245.1C379 245.5 378.7 245.8 378.3 245.8Z" fill="#51B6FF"/>
<path d="M385.7 247.2C385.6 247.2 385.6 247.2 385.7 247.2L373.6 245.9L355.6 246.1C355.2 246.1 354.9 245.8 354.9 245.4C354.9 245 355.2 244.7 355.6 244.7L373.6 244.5L385.7 245.8C386.1 245.8 386.4 246.2 386.4 246.6C386.4 246.9 386 247.2 385.7 247.2Z" fill="#51B6FF"/>
<path d="M386.4 251.7C386.4 252.1 386 252.4 385.7 252.4H385.6L385.1 252.3L373.6 251L356.4 251.2H355.7C355.3 251.2 355 250.9 355 250.5C355 250.1 355.3 249.8 355.7 249.8H356.4L373.7 249.7L385.1 251L385.8 251.1C386.1 250.9 386.4 251.3 386.4 251.7Z" fill="#51B6FF"/>
<path d="M386.5 246.6V302.6C386.5 302.7 386.5 302.8 386.4 302.9C386.3 303.2 386 303.3 385.7 303.3C385.4 303.3 385.1 303.1 385 302.9C385 302.8 384.9 302.7 384.9 302.6V246.6C384.9 246.2 385.2 245.9 385.6 245.9C385.8 245.9 385.9 246 386 246C386.4 246.1 386.5 246.3 386.5 246.6Z" fill="#51B6FF"/>
<path d="M379.9 263.9L379.8 276.6V276.9C379.8 277.3 379.5 277.6 379.1 277.6C378.7 277.6 378.4 277.3 378.4 276.8V276.5L378.5 263.8C378.5 259.9 373 257.7 371.7 257.2C371.6 257.2 371.5 257.1 371.5 257.1C371.1 257 370.9 256.6 371 256.2C371.1 256 371.2 255.8 371.4 255.7H371.5H371.6H371.7H371.8H371.9C373.2 256.2 379.9 258.7 379.9 263.9Z" fill="#51B6FF"/>
<path d="M371.8 257.2C371.8 257.2 371.7 257.2 371.6 257.3C370.4 257.7 364.8 259.8 364.8 263.9V276.9C364.8 277.3 364.5 277.6 364.1 277.6C363.7 277.6 363.4 277.3 363.4 276.9V263.9C363.4 258.5 370.7 256.1 371.4 255.8H371.5H371.6H371.7H371.8C372.1 255.8 372.3 256 372.4 256.3C372.4 256.7 372.2 257.1 371.8 257.2Z" fill="#51B6FF"/>
<path d="M386.5 277.3C386.5 277.7 386.2 278 385.8 278H356.8C356.6 278 356.5 277.9 356.4 277.9C356.2 277.8 356.1 277.5 356.1 277.3C356.1 277.1 356.2 276.8 356.4 276.7C356.5 276.6 356.7 276.6 356.8 276.6H385.8C386.2 276.6 386.5 276.9 386.5 277.3Z" fill="#51B6FF"/>
<path d="M379 302.3C378.6 302.3 378.3 302 378.3 301.5L378.4 289.7C378.4 286.3 373.5 284.3 371.4 283.6L371.8 282.2C374.9 283.2 379.8 285.5 379.8 289.7L379.7 301.5C379.7 302 379.4 302.3 379 302.3Z" fill="#51B6FF"/>
<path d="M364.1 302.3C363.7 302.3 363.4 302 363.4 301.6V289.8C363.4 284.7 370.7 282.5 371.5 282.3C371.9 282.2 372.3 282.4 372.4 282.8C372.5 283.2 372.3 283.6 371.9 283.7C371.6 283.8 364.9 285.7 364.9 289.8V301.6C364.8 302 364.5 302.3 364.1 302.3Z" fill="#51B6FF"/>
<path d="M439.4 201.9C439.4 202.3 439.1 202.6 438.7 202.6H424.4C424 202.6 423.7 202.3 423.7 201.9C423.7 201.5 424 201.2 424.4 201.2H438.7C439 201.2 439.4 201.5 439.4 201.9Z" fill="#51B6FF"/>
<path d="M439.2 214.5H423.1C422.7 214.5 422.4 214.2 422.4 213.8C422.4 213.4 422.7 213.1 423.1 213.1H439.2C439.6 213.1 439.9 213.4 439.9 213.8C439.9 214.2 439.6 214.5 439.2 214.5Z" fill="#51B6FF"/>
<path d="M440.8 244.8H421.7C421.3 244.8 421 244.5 421 244.1C421 243.7 421.3 243.4 421.7 243.4H440.8C441.2 243.4 441.5 243.7 441.5 244.1C441.6 244.5 441.2 244.8 440.8 244.8Z" fill="#51B6FF"/>
<path d="M442.6 274.5H421.2C420.8 274.5 420.5 274.2 420.5 273.8C420.5 273.4 420.8 273.1 421.2 273.1H442.6C443 273.1 443.3 273.4 443.3 273.8C443.3 274.2 443 274.5 442.6 274.5Z" fill="#51B6FF"/>
<path d="M408.4 230.7C408 230.7 407.7 230.4 407.7 230L407.6 222C407.6 221.6 407.9 221.3 408.3 221.2C408.7 221.2 409 221.5 409 221.9L409.1 229.9C409.2 230.4 408.9 230.7 408.4 230.7ZM399.3 230.7C398.9 230.7 398.5 230.3 398.6 229.9L398.9 221.9C398.9 221.5 399.2 221.2 399.6 221.2C400 221.2 400.3 221.6 400.3 222L400 230C400 230.4 399.7 230.7 399.3 230.7ZM398.7 255.1C398.3 255.1 397.9 254.7 398 254.3L398.6 231.5C398.6 231.1 398.9 230.8 399.3 230.8C399.7 230.8 400 231.1 400 231.6L399.4 254.4C399.4 254.8 399.1 255.1 398.7 255.1ZM409.3 255.1C408.9 255.1 408.6 254.8 408.6 254.4L407.7 231.6C407.7 231.2 408 230.8 408.4 230.8C408.8 230.8 409.2 231.1 409.2 231.5L410.1 254.3C410.1 254.8 409.8 255.1 409.3 255.1ZM398.1 279.1C397.7 279.1 397.4 278.8 397.4 278.3L397.8 256C397.8 255.6 398.1 255.3 398.5 255.3C398.9 255.3 399.2 255.6 399.2 256.1L398.8 278.4C398.8 278.8 398.5 279.1 398.1 279.1ZM410.2 279.1C409.8 279.1 409.5 278.8 409.5 278.4L408.8 256.1C408.8 255.7 409.1 255.3 409.5 255.3C409.9 255.3 410.2 255.6 410.3 256L411 278.3C411 278.7 410.6 279.1 410.2 279.1ZM411 303.9C410.6 303.9 410.3 303.6 410.3 303.2L409.6 280.3C409.6 279.9 409.9 279.5 410.3 279.5C410.7 279.5 411 279.8 411 280.2L411.7 303.1C411.7 303.6 411.4 303.9 411 303.9ZM397.3 303.9C396.9 303.9 396.5 303.5 396.6 303.1L397.2 280.2C397.2 279.8 397.5 279.5 397.9 279.5C398.3 279.5 398.6 279.9 398.6 280.3L398 303.2C398.1 303.6 397.7 303.9 397.3 303.9Z" fill="#51B6FF"/>
<path d="M408.4 221.1H408.3C407.9 221 407.6 220.7 407.7 220.2C408 218.2 407.3 216.8 405.6 216C405.2 215.8 405.1 215.4 405.3 215C405.5 214.6 405.9 214.5 406.3 214.7C408.6 215.9 409.6 217.9 409.2 220.5C409.1 220.9 408.8 221.1 408.4 221.1Z" fill="#51B6FF"/>
<path d="M405.9 216.1C405.8 216.1 405.7 216.1 405.6 216C405.5 216 404.4 215.5 403.4 214.5C403.1 214.2 403.1 213.7 403.4 213.5C403.7 213.2 404.2 213.2 404.4 213.5C405.2 214.3 406.1 214.7 406.1 214.7C406.5 214.9 406.6 215.3 406.5 215.7C406.5 215.9 406.2 216.1 405.9 216.1Z" fill="#51B6FF"/>
<path d="M401.9 216.1C401.6 216.1 401.4 215.9 401.2 215.7C401 215.3 401.2 214.9 401.5 214.7C402 214.4 403 213.9 403.4 213.5C403.7 213.2 404.2 213.2 404.4 213.5C404.7 213.8 404.7 214.3 404.4 214.5C403.7 215.2 402.3 215.9 402.1 216C402.2 216.1 402 216.1 401.9 216.1Z" fill="#51B6FF"/>
<path d="M402.2 216.1C402 216.1 401.7 216 401.6 215.8C401.4 215.5 401.5 215 401.8 214.8C403.8 213.6 406.1 214.7 406.2 214.8C406.6 215 406.7 215.4 406.5 215.8C406.3 216.2 405.9 216.3 405.5 216.1C405.5 216.1 403.8 215.3 402.5 216.1C402.5 216.1 402.4 216.1 402.2 216.1Z" fill="#51B6FF"/>
<path d="M399.4 221.1C399 221.1 398.7 220.8 398.7 220.5C398.2 217.4 400.5 215.3 401.8 214.7C402.2 214.5 402.6 214.7 402.8 215C403 215.4 402.8 215.8 402.5 216C402.4 216.1 399.7 217.4 400.2 220.2C400.3 220.6 400 221 399.6 221.1C399.5 221.1 399.5 221.1 399.4 221.1Z" fill="#51B6FF"/>
<path d="M404.1 212.7H404.5C404.5 212.4 404.3 212.1 403.9 212.1L404.1 212.7ZM404 213.6C403.6 213.6 403.1 213.3 403.1 212.7C403.1 212.3 403.4 212 403.8 212C404.2 212 404.8 212.3 404.8 212.7C404.9 213.3 404.6 213.6 404 213.6Z" fill="#51B6FF"/>
<path d="M404 212.7C403.7 212.7 403.4 212.9 403.4 213.3H404V213.2L404.6 213.3C404.6 213 404.3 212.7 404 212.7ZM404 214.2C403.4 214.2 403.1 213.7 403.1 213.3C403.1 212.7 403.4 212.4 404 212.4C404.6 212.4 404.9 212.7 404.9 213.3C404.9 213.7 404.6 214.2 404 214.2Z" fill="#51B6FF"/>
<path d="M404.3 213.7H404.5C404.5 213.4 404.3 213.2 404.1 213.1H404C403.8 213.2 403.6 213.4 403.6 213.7H404.3ZM404 214L403.8 214.2C403.9 214.3 404.1 214.3 404.3 214.2L404 214ZM404 214.6C403 214.6 403 213.8 403 213.7C403 213.5 403.1 213.3 403.2 213.2C403.3 213.1 403.6 212.8 404 212.8C404.4 212.8 404.7 213.1 404.8 213.2C404.9 213.3 405 213.5 405 213.7C405 213.8 405 214.6 404 214.6Z" fill="#51B6FF"/>
<path d="M404 213.3C403.6 213.3 403.3 213 403.3 212.6V212.2C403.3 211.8 403.6 211.5 404 211.5C404.4 211.5 404.7 211.8 404.7 212.2V212.6C404.7 213 404.4 213.3 404 213.3Z" fill="#51B6FF"/>
<path d="M409.8 221.9H398.3C397.9 221.9 397.6 221.6 397.6 221.2C397.6 220.8 397.9 220.5 398.3 220.5H409.8C410.2 220.5 410.5 220.8 410.5 221.2C410.5 221.5 410.2 221.9 409.8 221.9Z" fill="#51B6FF"/>
<path d="M410.4 231.5H397.2C396.8 231.5 396.5 231.2 396.5 230.8C396.5 230.4 396.8 230.1 397.2 230.1H410.4C410.8 230.1 411.1 230.4 411.1 230.8C411.1 231.2 410.8 231.5 410.4 231.5Z" fill="#51B6FF"/>
<path d="M411.5 256H396.1C395.7 256 395.4 255.7 395.4 255.3C395.4 254.9 395.7 254.6 396.1 254.6H411.5C411.9 254.6 412.2 254.9 412.2 255.3C412.3 255.7 411.9 256 411.5 256Z" fill="#51B6FF"/>
<path d="M413 280.1H395.7C395.3 280.1 395 279.8 395 279.4C395 279 395.3 278.7 395.7 278.7H413C413.4 278.7 413.7 279 413.7 279.4C413.8 279.8 413.4 280.1 413 280.1Z" fill="#51B6FF"/>
<path d="M460.5 304.4H198.4C198 304.4 197.7 304.1 197.7 303.7C197.7 303.3 198 303 198.4 303H460.5C460.9 303 461.2 303.3 461.2 303.7C461.2 304 460.9 304.4 460.5 304.4Z" fill="#51B6FF"/>
<path d="M39.4998 303.9C39.0998 303.9 38.7998 303.6 38.7998 303.2V259.9C38.7998 259.5 39.0998 259.2 39.4998 259.2C39.8998 259.2 40.1998 259.5 40.1998 259.9V303.2C40.2998 303.6 39.9998 303.9 39.4998 303.9Z" fill="#51B6FF"/>
<path d="M40.0001 260.5C34.3001 260.5 29.3001 256.8 27.5001 251.3C27.4001 250.9 27.6001 250.5 28.0001 250.4C28.4001 250.3 28.8001 250.5 28.9001 250.9C30.5001 255.8 35.0001 259.1 40.0001 259.1C45.0001 259.1 49.6001 255.7 51.0001 250.9C51.1001 250.5 51.5001 250.3 51.9001 250.4C52.3001 250.5 52.5001 250.9 52.4001 251.3C50.8001 256.7 45.7001 260.5 40.0001 260.5Z" fill="#51B6FF"/>
<path d="M60.2997 247C60.0997 247 59.8997 246.9 59.7997 246.8C59.4997 246.5 59.4997 246 59.7997 245.8C63.3997 242.2 64.1997 236.6 61.6997 232.2C59.2997 227.7 54.1997 225.3 49.1997 226.4C48.6997 226.5 48.3997 226.2 48.2997 225.8C48.1997 225.4 48.4997 225 48.8997 224.9C54.5997 223.8 60.2997 226.4 62.9997 231.5C65.6997 236.5 64.7997 242.8 60.7997 246.9C60.5997 246.9 60.3997 247 60.2997 247Z" fill="#51B6FF"/>
<path d="M23.9999 252.8C21.2999 252.8 18.8999 251.1 18.2999 248.6C18.1999 248.2 18.3999 247.8 18.7999 247.7C19.1999 247.6 19.5999 247.8 19.6999 248.2C20.1999 250 21.9999 251.3 23.9999 251.3C25.9999 251.3 27.6999 250.1 28.2999 248.1C28.3999 247.7 28.8999 247.5 29.1999 247.6C29.5999 247.7 29.7999 248.1 29.6999 248.5C28.8999 251.1 26.5999 252.8 23.9999 252.8Z" fill="#51B6FF"/>
<path d="M62.3002 256.3C62.1002 256.3 61.9002 256.2 61.8002 256.1C61.5002 255.8 61.6002 255.3 61.9002 255.1C63.3002 253.8 63.6002 251.7 62.6002 250C61.6002 248.2 59.7002 247.3 57.8002 247.7C57.4002 247.8 57.0002 247.5 56.9002 247.1C56.8002 246.7 57.1002 246.3 57.5002 246.2C60.0002 245.7 62.6002 246.9 63.9002 249.2C65.2002 251.5 64.8002 254.4 62.9002 256.2C62.7002 256.3 62.5002 256.3 62.3002 256.3Z" fill="#51B6FF"/>
<path d="M23.1 230.7C22.8 230.7 22.5 230.5 22.4 230.2C21.1 225.6 22.9 220.8 27 218.1C31 215.5 36.3 215.8 39.9 218.9C40.2 219.2 40.2 219.6 40 219.9C39.7 220.2 39.3 220.2 39 220C35.9 217.3 31.4 217.1 27.9 219.3C24.4 221.6 22.8 225.8 23.9 229.7C24 230.1 23.8 230.5 23.4 230.6C23.3 230.7 23.2 230.7 23.1 230.7Z" fill="#51B6FF"/>
<path d="M39.8004 221.9H39.7004C39.3004 221.8 39.0004 221.4 39.1004 221C39.6004 218.5 41.8004 216.6 44.5004 216.3C44.6004 216.3 44.8004 216.3 44.9004 216.3C47.4004 216.3 49.7004 217.9 50.5004 220.2C50.6004 220.6 50.4004 221 50.0004 221.1C49.6004 221.2 49.2004 221 49.1004 220.6C48.5004 218.8 46.6004 217.6 44.7004 217.7C42.7004 218 41.0004 219.4 40.6004 221.3C40.5004 221.6 40.2004 221.9 39.8004 221.9Z" fill="#51B6FF"/>
<path d="M15.9998 252.8C15.7998 252.8 15.5998 252.7 15.4998 252.6C11.2998 248.8 10.1998 242.5 12.6998 237.4C15.2998 232.2 20.8998 229.4 26.6998 230.3C27.0998 230.4 27.3998 230.8 27.2998 231.2C27.1998 231.6 26.7998 231.9 26.3998 231.8C21.2998 231 16.2998 233.5 13.9998 238.1C11.7998 242.6 12.7998 248.2 16.4998 251.6C16.7998 251.9 16.7998 252.3 16.4998 252.6C16.3998 252.7 16.1998 252.8 15.9998 252.8Z" fill="#51B6FF"/>
<path d="M52.1001 235.5C51.8001 235.5 51.5001 235.3 51.4001 234.9C50.7001 232.4 51.8001 229.6 54.0001 228.3C56.3001 226.8 59.2001 226.9 61.1001 228.7C61.4001 229 61.4001 229.4 61.1001 229.7C60.8001 230 60.4001 230 60.1001 229.7C58.7001 228.4 56.6001 228.3 54.8001 229.5C53.2001 230.5 52.4001 232.5 52.9001 234.5C53.0001 234.9 52.8001 235.3 52.4001 235.4C52.2001 235.5 52.2001 235.5 52.1001 235.5Z" fill="#51B6FF"/>
<path d="M48.6005 238.6C48.3005 238.6 48.0005 238.4 47.9005 238.1C46.6005 234 42.9005 231.2 38.5005 231.2C34.3005 231.2 30.6005 234 29.3005 238.1C29.2005 238.5 28.8005 238.7 28.4005 238.6C28.0005 238.5 27.8005 238.1 27.9005 237.7C29.4005 233 33.7005 229.8 38.5005 229.8C43.5005 229.8 47.8005 233 49.3005 237.7C49.4005 238.1 49.2005 238.5 48.8005 238.6C48.7005 238.6 48.6005 238.6 48.6005 238.6Z" fill="#51B6FF"/>
<path d="M52.6997 241.8C52.3997 241.8 52.0997 241.6 51.9997 241.3C51.4997 239.7 50.0997 238.7 48.5997 238.7C46.8997 238.7 45.4997 239.7 44.9997 241.3C44.8997 241.7 44.4997 241.9 44.0997 241.8C43.6997 241.7 43.4997 241.3 43.5997 240.9C44.2997 238.7 46.2997 237.3 48.5997 237.3C50.7997 237.3 52.6997 238.8 53.3997 240.9C53.4997 241.3 53.2997 241.7 52.8997 241.8C52.8997 241.8 52.7997 241.8 52.6997 241.8Z" fill="#51B6FF"/>
<path d="M29.9001 264.2C24.4001 264.2 19.3001 260.5 17.5001 255.1C17.4001 254.7 17.6001 254.3 18.0001 254.2C18.4001 254.1 18.8001 254.3 18.9001 254.7C20.4001 259.5 24.9001 262.8 29.9001 262.8C32.2001 262.8 34.5001 262.2 36.6001 260.8C37.0001 260.6 37.4001 260.7 37.6001 261C37.8001 261.3 37.7001 261.8 37.4001 262C35.0001 263.5 32.6001 264.2 29.9001 264.2Z" fill="#51B6FF"/>
<path d="M50.0004 261.7C49.9004 261.7 49.8004 261.7 49.7004 261.7C47.9004 261.7 46.1004 261.2 44.3004 260.1C43.9004 259.9 43.8004 259.4 44.0004 259.1C44.2004 258.8 44.7004 258.6 45.0004 258.8C46.7004 259.8 48.3004 260.2 49.9004 260.2C53.4004 260.2 56.5004 257.9 57.6004 254.3C57.7004 253.9 58.2004 253.7 58.5004 253.8C58.9004 253.9 59.1004 254.3 59.0004 254.7C57.9004 258.9 54.1004 261.7 50.0004 261.7Z" fill="#51B6FF"/>
<path d="M264.1 194.5C263.9 194.5 263.7 194.4 263.5 194.2C262.5 193 261.5 192.3 260.6 192.3C259.8 192.3 259.1 192.7 258.3 193.6C258 193.9 257.6 193.9 257.3 193.7C257 193.4 257 193 257.2 192.7C258.3 191.5 259.4 190.9 260.6 190.9C262 190.9 263.3 191.7 264.6 193.3C264.9 193.6 264.8 194.1 264.5 194.3C264.4 194.5 264.2 194.5 264.1 194.5Z" fill="#51B6FF"/>
<path d="M264.1 194.5C263.9 194.5 263.7 194.4 263.6 194.3C263.3 194 263.3 193.6 263.5 193.3C264.9 191.7 266.3 190.9 267.7 190.9C268.9 190.9 270.1 191.5 271.1 192.7C271.4 193 271.3 193.5 271 193.7C270.7 194 270.2 193.9 270 193.6C269.2 192.7 268.5 192.3 267.7 192.3C266.8 192.3 265.7 192.9 264.6 194.2C264.5 194.4 264.3 194.5 264.1 194.5Z" fill="#51B6FF"/>
<path d="M469.8 167.3H548.2V183.9H469.8V167.3ZM549.1 165.9H549H469.1C468.7 165.9 468.4 166.2 468.4 166.6V184.6C468.4 185 468.7 185.3 469.1 185.3H549C549.2 185.3 549.5 185.2 549.6 185C549.7 184.9 549.7 184.7 549.7 184.6V166.6C549.7 166.2 549.4 165.9 549.1 165.9Z" fill="#51B6FF"/>
<path d="M465.1 191.7L459.2 185.3H548.2V191.7H465.1ZM549.5 184.2C549.4 184 549.1 183.9 548.9 183.9H457.5C457.2 183.9 456.9 184.1 456.8 184.3C456.7 184.6 456.7 184.9 456.9 185.1L464.2 192.9C464.3 193.1 464.5 193.1 464.7 193.1H549C549.4 193.1 549.7 192.8 549.7 192.4V184.6C549.7 184.5 549.6 184.3 549.5 184.2Z" fill="#51B6FF"/>
<path d="M549 300.5C548.6 300.5 548.3 300.2 548.3 299.8V204.5H469.9V299.8C469.9 300.2 469.6 300.5 469.2 300.5C468.8 300.5 468.5 300.2 468.5 299.8V203.7C468.5 203.3 468.8 203 469.2 203H549C549.4 203 549.7 203.3 549.7 203.7V299.8C549.7 300.2 549.4 300.5 549 300.5Z" fill="#51B6FF"/>
<path d="M583.4 184C583 184 582.7 183.7 582.7 183.3V166.6C582.7 166.2 583 165.9 583.4 165.9C583.8 165.9 584.1 166.2 584.1 166.6V183.3C584.2 183.7 583.8 184 583.4 184Z" fill="#51B6FF"/>
<path d="M592.7 166.9V183.6C592.7 183.7 592.7 183.8 592.6 183.9C592.5 184.2 592.2 184.3 591.9 184.3C591.6 184.3 591.3 184.1 591.2 183.9C591.2 183.8 591.1 183.7 591.1 183.6V166.9C591.1 166.5 591.4 166.2 591.8 166.2C592.4 166.2 592.7 166.5 592.7 166.9Z" fill="#51B6FF"/>
<path d="M487 203C486.6 203 486.3 202.7 486.3 202.3V194C486.3 193.6 486.6 193.3 487 193.3C487.4 193.3 487.7 193.6 487.7 194V202.3C487.7 202.6 487.4 203 487 203Z" fill="#51B6FF"/>
<path d="M495.6 203.1C495.2 203.1 494.9 202.8 494.9 202.4V194.1C494.9 193.7 495.2 193.4 495.6 193.4C496 193.4 496.3 193.7 496.3 194.1V202.4C496.3 202.8 496 203.1 495.6 203.1Z" fill="#51B6FF"/>
<path d="M651.2 197.2C650.1 197.2 649.3 198.1 649.3 199.3C649.3 200.4 650.1 201.2 651.2 201.2C652.3 201.2 653.3 200.3 653.3 199.3C653.2 198 652.2 197.2 651.2 197.2ZM651.2 202.7C649.3 202.7 647.8 201.2 647.8 199.3C647.8 197.3 649.3 195.8 651.2 195.8C653.2 195.8 654.8 197.4 654.8 199.3C654.7 201.1 653.1 202.7 651.2 202.7Z" fill="#51B6FF"/>
<path d="M504.7 202.2C504.3 202.2 504 201.9 504 201.5V193.2C504 192.8 504.3 192.5 504.7 192.5C505.1 192.5 505.4 192.8 505.4 193.2V201.5C505.5 201.9 505.1 202.2 504.7 202.2Z" fill="#51B6FF"/>
<path d="M513.3 202.4C512.9 202.4 512.6 202.1 512.6 201.7V193.3C512.6 192.9 512.9 192.6 513.3 192.6C513.7 192.6 514 192.9 514 193.3V201.6C514 202 513.7 202.4 513.3 202.4Z" fill="#51B6FF"/>
<path d="M521.9 202.5C521.5 202.5 521.2 202.2 521.2 201.8V193.5C521.2 193.1 521.5 192.8 521.9 192.8C522.3 192.8 522.6 193.1 522.6 193.5V201.8C522.6 202.2 522.3 202.5 521.9 202.5Z" fill="#51B6FF"/>
<path d="M530.5 202.7C530.1 202.7 529.8 202.4 529.8 202V193.7C529.8 193.3 530.1 193 530.5 193C530.9 193 531.2 193.3 531.2 193.7V202C531.2 202.3 530.9 202.7 530.5 202.7Z" fill="#51B6FF"/>
<path d="M539.8 202.7C539.4 202.7 539.1 202.4 539.1 202V193.7C539.1 193.3 539.4 193 539.8 193C540.2 193 540.5 193.3 540.5 193.7V202C540.5 202.3 540.2 202.7 539.8 202.7Z" fill="#51B6FF"/>
<path d="M469.8 165.9H548.2V160.1H469.8V165.9ZM549 167.3H469.1C468.7 167.3 468.4 167 468.4 166.6V159.3C468.4 158.9 468.7 158.6 469.1 158.6H549C549.4 158.6 549.7 158.9 549.7 159.3V166.5C549.7 167 549.4 167.3 549 167.3Z" fill="#51B6FF"/>
<path d="M530.2 300.5C529.8 300.5 529.5 300.2 529.5 299.8V211.7H487.2V299.8C487.2 300.2 486.9 300.5 486.5 300.5C486.1 300.5 485.8 300.2 485.8 299.8V211C485.8 210.6 486.1 210.3 486.5 210.3H530.3C530.7 210.3 531 210.6 531 211V299.8C530.9 300.2 530.6 300.5 530.2 300.5Z" fill="#51B6FF"/>
<path d="M652.3 300.5C651.9 300.5 651.6 300.2 651.6 299.8V241.3C651.6 218 638 199 621.3 199C604.6 199 591 218 591 241.3V299.8C591 300.2 590.7 300.5 590.3 300.5C589.9 300.5 589.6 300.2 589.6 299.8V241.3C589.6 217.2 603.9 197.5 621.4 197.5C638.9 197.5 653.2 217.1 653.2 241.3V299.8C653.1 300.2 652.7 300.5 652.3 300.5Z" fill="#51B6FF"/>
<path d="M589.2 197.2C588.1 197.2 587.3 198.1 587.3 199.3C587.3 200.4 588.1 201.2 589.2 201.2C590.3 201.2 591.3 200.3 591.3 199.3C591.3 198 590.2 197.2 589.2 197.2ZM589.2 202.7C587.3 202.7 585.8 201.2 585.8 199.3C585.8 197.3 587.3 195.8 589.2 195.8C591.2 195.8 592.8 197.4 592.8 199.3C592.7 201.1 591.1 202.7 589.2 202.7Z" fill="#51B6FF"/>
<path d="M668.5 160.2H572.2C571.8 160.2 571.5 159.9 571.5 159.5C571.5 159.1 571.8 158.8 572.2 158.8H668.5C668.9 158.8 669.2 159.1 669.2 159.5C669.2 159.9 668.9 160.2 668.5 160.2ZM692.6 160.2H686.7C686.3 160.2 686 159.9 686 159.5C686 159.1 686.3 158.8 686.7 158.8H692.6C693 158.8 693.3 159.1 693.3 159.5C693.3 159.9 693 160.2 692.6 160.2ZM553.8 160.2L545.8 160.1C545.4 160.1 545.1 159.8 545.1 159.3C545.1 158.9 545.4 158.6 545.8 158.6L553.8 158.7C554.2 158.7 554.5 159 554.5 159.5C554.6 159.9 554.2 160.2 553.8 160.2Z" fill="#51B6FF"/>
<path d="M692.3 184.6C692.3 185 692 185.3 691.6 185.3H550.1C549.9 185.3 549.8 185.2 549.7 185.2C549.6 185.2 549.6 185.1 549.6 185.1C549.5 185 549.4 184.8 549.4 184.7C549.4 184.5 549.5 184.4 549.6 184.3C549.6 184.2 549.7 184.2 549.7 184.2C549.8 184.1 550 184.1 550.1 184.1H691.5C691.9 183.9 692.3 184.2 692.3 184.6Z" fill="#51B6FF"/>
<path d="M606.5 166.6V183.3C606.5 183.5 606.4 183.8 606.2 183.9C606.1 184 605.9 184 605.8 184C605.6 184 605.5 183.9 605.4 183.9C605.2 183.8 605.1 183.5 605.1 183.3V166.6C605.1 166.2 605.4 165.9 605.8 165.9C606.2 165.8 606.5 166.2 606.5 166.6Z" fill="#51B6FF"/>
<path d="M614.3 184.3C613.9 184.3 613.6 184 613.6 183.6V166.9C613.6 166.5 613.9 166.2 614.3 166.2C614.7 166.2 615 166.5 615 166.9V183.6C615.1 184 614.7 184.3 614.3 184.3Z" fill="#51B6FF"/>
<path d="M627.9 184C627.5 184 627.2 183.7 627.2 183.3V166.6C627.2 166.2 627.5 165.9 627.9 165.9C628.3 165.9 628.6 166.2 628.6 166.6V183.3C628.7 183.7 628.3 184 627.9 184Z" fill="#51B6FF"/>
<path d="M637.3 166.9V183.6C637.3 183.7 637.3 183.8 637.2 183.9C637.1 184.2 636.8 184.3 636.5 184.3C636.2 184.3 635.9 184.1 635.8 183.9C635.8 183.8 635.7 183.7 635.7 183.6V166.9C635.7 166.5 636 166.2 636.4 166.2C636.9 166.2 637.3 166.5 637.3 166.9Z" fill="#51B6FF"/>
<path d="M651 166.6V183.3C651 183.5 650.9 183.8 650.7 183.9C650.6 184 650.4 184 650.3 184C650.1 184 650 183.9 649.9 183.9C649.7 183.8 649.6 183.5 649.6 183.3V166.6C649.6 166.2 649.9 165.9 650.3 165.9C650.7 165.8 651 166.2 651 166.6Z" fill="#51B6FF"/>
<path d="M658.9 184.3C658.5 184.3 658.2 184 658.2 183.6V166.9C658.2 166.5 658.5 166.2 658.9 166.2C659.3 166.2 659.6 166.5 659.6 166.9V183.6C659.6 184 659.3 184.3 658.9 184.3Z" fill="#51B6FF"/>
<path d="M687.3 125.1C687.3 125.5 687 125.8 686.6 125.8H554C553.6 125.8 553.3 125.5 553.3 125.1C553.3 124.7 553.6 124.4 554 124.4H686.5C686.9 124.3 687.3 124.6 687.3 125.1Z" fill="#51B6FF"/>
<path d="M579.9 300.5C579.5 300.5 579.2 300.2 579.2 299.8V188.9C579.2 188.5 579.5 188.2 579.9 188.2C580.3 188.2 580.6 188.5 580.6 188.9V299.8C580.6 300.2 580.3 300.5 579.9 300.5Z" fill="#51B6FF"/>
<path d="M667.9 113.2H573.5C573.1 113.2 572.8 112.9 572.8 112.5C572.8 112.1 573.1 111.8 573.5 111.8H667.9C668.3 111.8 668.6 112.1 668.6 112.5C668.6 112.9 668.3 113.2 667.9 113.2Z" fill="#51B6FF"/>
<path d="M572 166.4C571.6 166.4 571.3 166.1 571.3 165.7V97.9C571.3 89.4 567.5 82.2001 563 82.2001C558.4 82.2001 554.7 89.2 554.7 97.9V165.7C554.7 166.1 554.4 166.4 554 166.4C553.6 166.4 553.3 166.1 553.3 165.7V97.9C553.3 88.3 557.6 80.8 563.1 80.8C568.5 80.8 572.9 88.5 572.9 97.9V165.7C572.8 166.1 572.4 166.4 572 166.4Z" fill="#51B6FF"/>
<path d="M571.6 97.3001H554.1C553.7 97.3001 553.4 97.0002 553.4 96.6002C553.4 96.2002 553.7 95.9001 554.1 95.9001H571.6C572 95.9001 572.3 96.2002 572.3 96.6002C572.3 96.9002 572 97.3001 571.6 97.3001Z" fill="#51B6FF"/>
<path d="M562.7 81.4C562.3 81.4 562 81.1 562 80.7V75.7C562 75.3 562.3 75 562.7 75C563.1 75 563.4 75.3 563.4 75.7V80.7C563.4 81.1 563.1 81.4 562.7 81.4Z" fill="#51B6FF"/>
<path d="M549 205.2C548.6 205.2 548.3 204.9 548.3 204.5V191.8C548.3 191.4 548.6 191.1 549 191.1C549.4 191.1 549.7 191.4 549.7 191.8V204.5C549.7 204.8 549.4 205.2 549 205.2Z" fill="#51B6FF"/>
<path d="M691.2 189.5H549.8C549.4 189.5 549.1 189.2 549.1 188.8C549.1 188.4 549.4 188.1 549.8 188.1H691.2C691.6 188.1 691.9 188.4 691.9 188.8C692 189.2 691.7 189.5 691.2 189.5Z" fill="#51B6FF"/>
<path d="M691.4 166.6C691.4 166.8 691.3 167.1 691.1 167.2C691 167.3 690.9 167.3 690.8 167.3H690.7H549.2C549.1 167.3 549.1 167.3 549.1 167.3C548.8 167.2 548.5 166.9 548.5 166.6C548.5 166.2 548.8 165.9 549.1 165.9H549.2H690.6H690.7C690.8 165.9 690.9 166 691 166C691.3 166.1 691.4 166.4 691.4 166.6Z" fill="#51B6FF"/>
<path d="M579.9 202.4H549.9C549.5 202.4 549.2 202.1 549.2 201.7C549.2 201.3 549.5 201 549.9 201H579.9C580.3 201 580.6 201.3 580.6 201.7C580.6 202 580.3 202.4 579.9 202.4Z" fill="#51B6FF"/>
<path d="M579.9 283.1H549.9C549.5 283.1 549.2 282.8 549.2 282.4C549.2 282 549.5 281.7 549.9 281.7H579.9C580.3 281.7 580.6 282 580.6 282.4C580.6 282.7 580.3 283.1 579.9 283.1Z" fill="#51B6FF"/>
<path d="M661.7 300.5C661.3 300.5 661 300.2 661 299.8V188.8C661 188.4 661.3 188.1 661.7 188.1C662.1 188.1 662.4 188.4 662.4 188.8V299.8C662.4 300.2 662.1 300.5 661.7 300.5Z" fill="#51B6FF"/>
<path d="M691.8 203.7H661.8C661.4 203.7 661.1 203.4 661.1 203C661.1 202.6 661.4 202.3 661.8 202.3H691.8C692.2 202.3 692.5 202.6 692.5 203C692.6 203.4 692.2 203.7 691.8 203.7Z" fill="#51B6FF"/>
<path d="M691.8 284.4H661.8C661.4 284.4 661.1 284.1 661.1 283.7C661.1 283.3 661.4 283 661.8 283H691.8C692.2 283 692.5 283.3 692.5 283.7C692.6 284.1 692.2 284.4 691.8 284.4Z" fill="#51B6FF"/>
<path d="M469.2 203.1C468.8 203.1 468.5 202.8 468.5 202.4V194.1C468.5 193.7 468.8 193.4 469.2 193.4C469.6 193.4 469.9 193.7 469.9 194.1V202.4C470 202.8 469.6 203.1 469.2 203.1Z" fill="#51B6FF"/>
<path d="M477.8 203.3C477.4 203.3 477.1 203 477.1 202.6V194.3C477.1 193.9 477.4 193.6 477.8 193.6C478.2 193.6 478.5 193.9 478.5 194.3V202.6C478.5 202.9 478.2 203.3 477.8 203.3Z" fill="#51B6FF"/>
<path d="M522.5 300.5C522.1 300.5 521.8 300.2 521.8 299.8V238C521.8 227.8 515.8 219.5 508.3 219.5C500.8 219.5 494.7 227.8 494.7 238V299.8C494.7 300.2 494.4 300.5 494 300.5C493.6 300.5 493.3 300.2 493.3 299.8V238C493.3 227 500.1 218 508.4 218C516.6 218 523.3 227 523.3 238V299.8C523.2 300.2 522.9 300.5 522.5 300.5Z" fill="#51B6FF"/>
<path d="M567.7 107.2V124.5C567.7 124.9 567.4 125.2 567 125.2C566.6 125.2 566.3 124.9 566.3 124.5V107.2C566.3 104.6 564.8 102.5 563 102.5C561.2 102.5 559.6 104.7 559.6 107.2V124.5C559.6 124.9 559.3 125.2 558.9 125.2C558.5 125.2 558.2 124.9 558.2 124.5V107.2C558.2 103.8 560.4 101 563.1 101C565.6 101 567.7 103.7 567.7 107.2Z" fill="#51B6FF"/>
<path d="M692.3 167.3H770.7V183.9H692.3V167.3ZM771.4 165.8H691.5C691.3 165.8 691.2 165.9 691.1 166C690.9 166.1 690.8 166.4 690.8 166.6V184.6C690.8 185 691.1 185.3 691.5 185.3H771.4C771.8 185.3 772.1 185 772.1 184.6V166.6C772.2 166.2 771.8 165.8 771.4 165.8Z" fill="#51B6FF"/>
<path d="M775.4 191.7H692.3V185.3H781.3L775.4 191.7ZM783.6 184.3C783.5 184 783.2 183.9 782.9 183.9H691.5C691.1 183.9 690.8 184.2 690.8 184.6V192.4C690.8 192.8 691.1 193.1 691.5 193.1H775.7C775.9 193.1 776.1 193 776.2 192.9L783.4 185.1C783.7 184.9 783.7 184.6 783.6 184.3Z" fill="#51B6FF"/>
<path d="M771.4 300.5C771 300.5 770.7 300.2 770.7 299.8V204.5H692.3V299.8C692.3 300.2 692 300.5 691.6 300.5C691.2 300.5 690.9 300.2 690.9 299.8V203.7C690.9 203.3 691.2 203 691.6 203H771.5C771.9 203 772.2 203.3 772.2 203.7V299.8C772.2 300.2 771.8 300.5 771.4 300.5Z" fill="#51B6FF"/>
<path d="M753.5 203C753.1 203 752.8 202.7 752.8 202.3V194C752.8 193.6 753.1 193.3 753.5 193.3C753.9 193.3 754.2 193.6 754.2 194V202.3C754.3 202.6 753.9 203 753.5 203Z" fill="#51B6FF"/>
<path d="M744.9 203.1C744.5 203.1 744.2 202.8 744.2 202.4V194.1C744.2 193.7 744.5 193.4 744.9 193.4C745.3 193.4 745.6 193.7 745.6 194.1V202.4C745.7 202.8 745.3 203.1 744.9 203.1Z" fill="#51B6FF"/>
<path d="M735.8 202.2C735.4 202.2 735.1 201.9 735.1 201.5V193.2C735.1 192.8 735.4 192.5 735.8 192.5C736.2 192.5 736.5 192.8 736.5 193.2V201.5C736.5 201.9 736.2 202.2 735.8 202.2Z" fill="#51B6FF"/>
<path d="M727.2 202.4C726.8 202.4 726.5 202.1 726.5 201.7V193.3C726.5 192.9 726.8 192.6 727.2 192.6C727.6 192.6 727.9 192.9 727.9 193.3V201.6C727.9 202 727.6 202.4 727.2 202.4Z" fill="#51B6FF"/>
<path d="M718.6 202.5C718.2 202.5 717.9 202.2 717.9 201.8V193.5C717.9 193.1 718.2 192.8 718.6 192.8C719 192.8 719.3 193.1 719.3 193.5V201.8C719.3 202.2 719 202.5 718.6 202.5Z" fill="#51B6FF"/>
<path d="M710 202.7C709.6 202.7 709.3 202.4 709.3 202V193.7C709.3 193.3 709.6 193 710 193C710.4 193 710.7 193.3 710.7 193.7V202C710.8 202.3 710.4 202.7 710 202.7Z" fill="#51B6FF"/>
<path d="M700.7 202.7C700.3 202.7 700 202.4 700 202V193.7C700 193.3 700.3 193 700.7 193C701.1 193 701.4 193.3 701.4 193.7V202C701.4 202.3 701.1 202.7 700.7 202.7Z" fill="#51B6FF"/>
<path d="M692.3 165.9H770.7V160.1H692.3V165.9ZM771.4 167.3H691.5C691.1 167.3 690.8 167 690.8 166.6V159.3C690.8 158.9 691.1 158.6 691.5 158.6H771.4C771.8 158.6 772.1 158.9 772.1 159.3V166.5C772.2 167 771.8 167.3 771.4 167.3Z" fill="#51B6FF"/>
<path d="M752.8 300.5C752.4 300.5 752.1 300.2 752.1 299.8V211.7H709.8V299.8C709.8 300.2 709.5 300.5 709.1 300.5C708.7 300.5 708.4 300.2 708.4 299.8V211C708.4 210.6 708.7 210.3 709.1 210.3H752.9C753.3 210.3 753.6 210.6 753.6 211V299.8C753.5 300.2 753.2 300.5 752.8 300.5Z" fill="#51B6FF"/>
<path d="M691.5 205.2C691.1 205.2 690.8 204.9 690.8 204.5V191.8C690.8 191.4 691.1 191.1 691.5 191.1C691.9 191.1 692.2 191.4 692.2 191.8V204.5C692.3 204.8 691.9 205.2 691.5 205.2Z" fill="#51B6FF"/>
<path d="M771.3 203.1C770.9 203.1 770.6 202.8 770.6 202.4V194.1C770.6 193.7 770.9 193.4 771.3 193.4C771.7 193.4 772 193.7 772 194.1V202.4C772 202.8 771.7 203.1 771.3 203.1Z" fill="#51B6FF"/>
<path d="M762.7 203.3C762.3 203.3 762 203 762 202.6V194.3C762 193.9 762.3 193.6 762.7 193.6C763.1 193.6 763.4 193.9 763.4 194.3V202.6C763.4 202.9 763.1 203.3 762.7 203.3Z" fill="#51B6FF"/>
<path d="M745.1 300.5C744.7 300.5 744.4 300.2 744.4 299.8V238C744.4 227.8 738.4 219.5 730.9 219.5C723.4 219.5 717.3 227.8 717.3 238V299.8C717.3 300.2 717 300.5 716.6 300.5C716.2 300.5 715.9 300.2 715.9 299.8V238C715.9 227 722.7 218 731 218C739.2 218 745.9 227 745.9 238V299.8C745.8 300.2 745.5 300.5 745.1 300.5Z" fill="#51B6FF"/>
<path d="M686.5 166C686.1 166 685.8 165.7 685.8 165.3V97.6001C685.8 89.2001 682 82.1001 677.5 82.1001C672.9 82.1001 669.2 89.1001 669.2 97.6001V165.3C669.2 165.7 668.9 166 668.5 166C668.1 166 667.8 165.7 667.8 165.3V97.6001C667.8 88.1001 672.1 80.6001 677.6 80.6001C683 80.6001 687.4 88.2001 687.4 97.6001V165.3C687.3 165.7 686.9 166 686.5 166Z" fill="#51B6FF"/>
<path d="M686.2 97.0001H668.9C668.5 97.0001 668.2 96.7001 668.2 96.3001C668.2 95.9001 668.5 95.6001 668.9 95.6001H686.2C686.6 95.6001 686.9 95.9001 686.9 96.3001C687 96.6001 686.6 97.0001 686.2 97.0001Z" fill="#51B6FF"/>
<path d="M677.8 81.2001C677.4 81.2001 677.1 80.9001 677.1 80.5001V75.6001C677.1 75.2001 677.4 74.9001 677.8 74.9001C678.2 74.9001 678.5 75.2001 678.5 75.6001V80.5001C678.5 80.8001 678.2 81.2001 677.8 81.2001Z" fill="#51B6FF"/>
<path d="M682.2 106.9V124.2C682.2 124.3 682.2 124.3 682.2 124.4C682.1 124.7 681.8 125 681.5 125C681.1 125 680.8 124.7 680.8 124.4C680.8 124.4 680.8 124.3 680.8 124.2V106.9C680.8 104.4 679.3 102.3 677.5 102.3C675.7 102.3 674.1 104.4 674.1 106.9V124.2C674.1 124.3 674.1 124.3 674.1 124.4C674 124.7 673.7 125 673.4 125C673 125 672.7 124.7 672.7 124.4C672.7 124.4 672.7 124.3 672.7 124.2V106.9C672.7 103.6 674.9 100.8 677.6 100.8C680.1 100.8 682.2 103.5 682.2 106.9Z" fill="#51B6FF"/>
<path d="M580.6 125.1C580.2 125.1 579.9 124.8 579.9 124.4V112.8C579.9 112.4 580.2 112.1 580.6 112.1C581 112.1 581.3 112.4 581.3 112.8V124.3C581.3 124.7 581 125.1 580.6 125.1Z" fill="#51B6FF"/>
<path d="M589.2 125.2C588.8 125.2 588.5 124.9 588.5 124.5V112.9C588.5 112.5 588.8 112.2 589.2 112.2C589.6 112.2 589.9 112.5 589.9 112.9V124.4C589.9 124.9 589.6 125.2 589.2 125.2Z" fill="#51B6FF"/>
<path d="M598.2 125.5C597.8 125.5 597.5 125.2 597.5 124.8V113.2C597.5 112.8 597.8 112.5 598.2 112.5C598.6 112.5 598.9 112.8 598.9 113.2V124.7C598.9 125.2 598.6 125.5 598.2 125.5Z" fill="#51B6FF"/>
<path d="M606.8 125.6C606.4 125.6 606.1 125.3 606.1 124.9V113.4C606.1 113 606.4 112.7 606.8 112.7C607.2 112.7 607.5 113 607.5 113.4V124.9C607.5 125.3 607.2 125.6 606.8 125.6Z" fill="#51B6FF"/>
<path d="M616 125.3C615.6 125.3 615.3 125 615.3 124.6V113.1C615.3 112.7 615.6 112.4 616 112.4C616.4 112.4 616.7 112.7 616.7 113.1V124.6C616.7 125 616.4 125.3 616 125.3Z" fill="#51B6FF"/>
<path d="M624.5 125.5C624.1 125.5 623.8 125.2 623.8 124.8V113.2C623.8 112.8 624.1 112.5 624.5 112.5C624.9 112.5 625.2 112.8 625.2 113.2V124.7C625.3 125.2 624.9 125.5 624.5 125.5Z" fill="#51B6FF"/>
<path d="M633.7 125.3C633.3 125.3 633 125 633 124.6V113.1C633 112.7 633.3 112.4 633.7 112.4C634.1 112.4 634.4 112.7 634.4 113.1V124.6C634.4 125 634.1 125.3 633.7 125.3Z" fill="#51B6FF"/>
<path d="M642.3 125.5C641.9 125.5 641.6 125.2 641.6 124.8V113.4C641.6 113 641.9 112.7 642.3 112.7C642.7 112.7 643 113 643 113.4V124.8C643 125.2 642.7 125.5 642.3 125.5Z" fill="#51B6FF"/>
<path d="M651.3 125.1C650.9 125.1 650.6 124.8 650.6 124.4V112.8C650.6 112.4 650.9 112.1 651.3 112.1C651.7 112.1 652 112.4 652 112.8V124.3C652 124.7 651.7 125.1 651.3 125.1Z" fill="#51B6FF"/>
<path d="M659.9 125.3C659.5 125.3 659.2 125 659.2 124.6V113.1C659.2 112.7 659.5 112.4 659.9 112.4C660.3 112.4 660.6 112.7 660.6 113.1V124.6C660.6 125 660.3 125.3 659.9 125.3Z" fill="#51B6FF"/>
<path d="M579.9 253.1H549.9C549.5 253.1 549.2 252.8 549.2 252.4C549.2 252 549.5 251.7 549.9 251.7H579.9C580.3 251.7 580.6 252 580.6 252.4C580.6 252.7 580.3 253.1 579.9 253.1Z" fill="#51B6FF"/>
<path d="M691.8 254.4H661.8C661.4 254.4 661.1 254.1 661.1 253.7C661.1 253.3 661.4 253 661.8 253H691.8C692.2 253 692.5 253.3 692.5 253.7C692.6 254.1 692.2 254.4 691.8 254.4Z" fill="#51B6FF"/>
<path d="M579.9 223.1H549.9C549.5 223.1 549.2 222.8 549.2 222.4C549.2 222 549.5 221.7 549.9 221.7H579.9C580.3 221.7 580.6 222 580.6 222.4C580.6 222.7 580.3 223.1 579.9 223.1Z" fill="#51B6FF"/>
<path d="M691.8 224.4H661.8C661.4 224.4 661.1 224.1 661.1 223.7C661.1 223.3 661.4 223 661.8 223H691.8C692.2 223 692.5 223.3 692.5 223.7C692.6 224.1 692.2 224.4 691.8 224.4Z" fill="#51B6FF"/>
<path d="M744.2 73.9001C740 73.9001 736.5 77.4001 736.5 81.6001C736.5 85.8001 740 89.3001 744.2 89.3001C748.5 89.3001 751.9 85.9001 751.9 81.6001C751.9 77.4001 748.4 73.9001 744.2 73.9001ZM744.2 90.8001C739.1 90.8001 735 86.7001 735 81.6001C735 76.6001 739.2 72.4001 744.2 72.4001C749.3 72.4001 753.4 76.5001 753.4 81.6001C753.4 86.7001 749.3 90.8001 744.2 90.8001Z" fill="#51B6FF"/>
<path d="M744.5 70.1C744.1 70.1 743.8 69.8 743.8 69.4V51.7C743.8 51.3 744.1 51 744.5 51C744.9 51 745.2 51.3 745.2 51.7V69.3C745.2 69.7 744.9 70.1 744.5 70.1Z" fill="#51B6FF"/>
<path d="M748.5 70.1001C748.4 70.1001 748.3 70.1001 748.2 70.0001C747.8 69.8001 747.6 69.4001 747.8 69.0001L751.6 59.7001C751.8 59.3001 752.2 59.1001 752.6 59.3001C753 59.5001 753.2 59.9001 753 60.3001L749.2 69.6001C749 69.9001 748.8 70.1001 748.5 70.1001Z" fill="#51B6FF"/>
<path d="M752.6 73.9C752.4 73.9 752.2 73.8 752.1 73.7C751.8 73.4 751.8 72.9 752.1 72.7L764.5 60.1C764.8 59.8 765.3 59.8 765.5 60.1C765.8 60.4 765.8 60.9 765.5 61.1L753.1 73.7C753 73.8 752.8 73.9 752.6 73.9Z" fill="#51B6FF"/>
<path d="M755.4 76.7C755.1 76.7 754.8 76.5 754.7 76.2C754.5 75.8 754.7 75.4 755.1 75.2L764.4 71.4C764.8 71.2 765.2 71.4 765.4 71.8C765.6 72.2 765.4 72.6 765 72.8L755.7 76.6C755.6 76.7 755.5 76.7 755.4 76.7Z" fill="#51B6FF"/>
<path d="M755.7 81C755.3 81 755 80.7 755 80.3C755 79.9 755.2 79.5 755.7 79.5L773.2 77.6C773.6 77.5 774 77.9 774 78.3C774 78.7 773.8 79.1 773.3 79.1L755.7 81C755.8 81 755.8 81 755.7 81Z" fill="#51B6FF"/>
<path d="M765.8 87.7999C765.7 87.7999 765.7 87.7999 765.6 87.7999L756 84.9999C755.6 84.8999 755.4 84.4999 755.5 84.0999C755.6 83.6999 756 83.4999 756.4 83.5999L766 86.3999C766.4 86.4999 766.6 86.8999 766.5 87.2999C766.4 87.5999 766.1 87.7999 765.8 87.7999Z" fill="#51B6FF"/>
<path d="M768.3 98.3C768.2 98.3 768 98.3 767.9 98.2L753.1 88.4C752.8 88.2 752.7 87.7 752.9 87.4C753.1 87.1 753.6 87 753.9 87.2L768.7 97C769 97.2 769.1 97.7 768.9 98C768.8 98.2 768.5 98.3 768.3 98.3Z" fill="#51B6FF"/>
<path d="M757.1 100.2C756.9 100.2 756.6 100.1 756.5 99.9001L750.9 91.6001C750.7 91.3001 750.8 90.8001 751.1 90.6001C751.4 90.4001 751.9 90.5001 752.1 90.8001L757.7 99.1001C757.9 99.4001 757.8 99.9001 757.5 100.1C757.4 100.2 757.2 100.2 757.1 100.2Z" fill="#51B6FF"/>
<path d="M752.3 109.8C752 109.8 751.7 109.6 751.6 109.3L746.3 92.6C746.2 92.2 746.4 91.8 746.8 91.7C747.2 91.6 747.6 91.8 747.7 92.2L753 108.9C753.1 109.3 752.9 109.7 752.5 109.8C752.5 109.8 752.4 109.8 752.3 109.8Z" fill="#51B6FF"/>
<path d="M742.4 104.2C741.9 104.2 741.6 103.8 741.7 103.4L742.6 93.5C742.6 93.1 742.9 92.8 743.4 92.8C743.8 92.8 744.1 93.2001 744.1 93.6001L743.2 103.5C743.1 103.9 742.8 104.2 742.4 104.2Z" fill="#51B6FF"/>
<path d="M732.5 108.8C732.4 108.8 732.3 108.8 732.2 108.7C731.8 108.5 731.6 108.1 731.8 107.7L738.5 91.3C738.7 90.9 739.1 90.7 739.5 90.9C739.9 91.1 740.1 91.5 739.9 91.9L733.2 108.3C733.1 108.6 732.8 108.8 732.5 108.8Z" fill="#51B6FF"/>
<path d="M728.5 98.0001C728.3 98.0001 728.1 97.9001 728 97.8001C727.7 97.5001 727.7 97.0001 728 96.8001L734.9 89.7001C735.2 89.4001 735.7 89.4001 735.9 89.7001C736.2 90.0001 736.2 90.5001 735.9 90.7001L728.9 97.8001C728.9 97.9001 728.7 98.0001 728.5 98.0001Z" fill="#51B6FF"/>
<path d="M718 95.2002C717.7 95.2002 717.5 95.1001 717.3 94.8001C717.1 94.4001 717.2 94.0001 717.6 93.8001L733.1 85.5001C733.5 85.3001 733.9 85.4001 734.1 85.8001C734.3 86.2001 734.2 86.6001 733.8 86.8001L718.3 95.1002C718.2 95.2002 718.1 95.2002 718 95.2002Z" fill="#51B6FF"/>
<path d="M721.7 84.4001C721.3 84.4001 721 84.1001 721 83.7001C721 83.3001 721.3 82.9001 721.7 82.9001L731.6 81.9001C732 81.8001 732.4 82.2001 732.4 82.6001C732.4 83.0001 732.1 83.4001 731.7 83.4001L721.7 84.4001Z" fill="#51B6FF"/>
<path d="M732.7 79.1H732.6L715.3 75.7C714.9 75.6 714.6 75.2 714.7 74.8C714.8 74.4 715.2 74.1 715.6 74.2L732.9 77.6C733.3 77.7 733.6 78.1 733.5 78.5C733.3 78.8 733 79.1 732.7 79.1Z" fill="#51B6FF"/>
<path d="M733.4 75.1001C733.3 75.1001 733.1 75.1001 733 75.0001L724.7 69.5001C724.4 69.3001 724.3 68.8001 724.5 68.5001C724.7 68.2001 725.2 68.1001 725.5 68.3001L733.8 73.8001C734.1 74.0001 734.2 74.5001 734 74.8001C733.9 75.0001 733.6 75.1001 733.4 75.1001Z" fill="#51B6FF"/>
<path d="M736.9 72.4C736.7 72.4 736.5 72.3 736.3 72.1L725.2 58.5C724.9 58.2 725 57.7 725.3 57.5C725.6 57.2 726.1 57.3 726.3 57.6L737.4 71.2C737.7 71.5 737.6 72 737.3 72.2C737.3 72.4 737.1 72.4 736.9 72.4Z" fill="#51B6FF"/>
<path d="M740.1 69.9C739.8 69.9 739.5 69.7 739.4 69.4L736.4 59.8C736.3 59.4 736.5 59 736.9 58.9C737.3 58.8 737.7 59 737.8 59.4L740.8 69C740.9 69.4 740.7 69.8 740.3 69.9C740.2 69.9 740.1 69.9 740.1 69.9Z" fill="#51B6FF"/>
<path d="M765.599 132C765.399 132 765.299 131.9 765.099 131.8C763.499 130.5 762.3 130.3 761 131.4C760.7 131.7 760.2 131.6 760 131.3C759.7 131 759.799 130.5 760.099 130.3C761.899 128.8 763.899 129 766.099 130.7C766.399 131 766.5 131.4 766.2 131.7C766.1 131.9 765.899 132 765.599 132Z" fill="#51B6FF"/>
<path d="M765.599 132C765.399 132 765.2 131.9 765 131.7C764.7 131.4 764.799 130.9 765.099 130.7C767.199 128.9 769.199 128.8 771.099 130.3C771.399 130.6 771.5 131 771.2 131.3C770.9 131.6 770.5 131.7 770.2 131.4C768.9 130.4 767.699 130.5 766.099 131.8C765.999 131.9 765.799 132 765.599 132Z" fill="#51B6FF"/>
<path d="M532.7 96.8001C532.5 96.8001 532.4 96.7001 532.2 96.6001C530.6 95.3001 529.4 95.1001 528.1 96.2001C527.8 96.5001 527.3 96.4001 527.1 96.1001C526.8 95.8001 526.9 95.3001 527.2 95.1001C529 93.6001 531 93.8001 533.2 95.5001C533.5 95.8001 533.6 96.2001 533.3 96.5001C533.1 96.7001 532.9 96.8001 532.7 96.8001Z" fill="#51B6FF"/>
<path d="M532.7 96.8C532.5 96.8 532.3 96.7 532.2 96.6C531.9 96.3 531.9 95.8 532.2 95.6C534.2 93.8 536.4 93.6 538.2 95.1C538.5 95.4 538.6 95.8 538.3 96.1C538 96.4 537.6 96.5 537.3 96.2C536 95.2 534.7 95.3 533.2 96.6C533 96.8 532.9 96.8 532.7 96.8Z" fill="#51B6FF"/>
<path d="M498.4 304.4H455.5C455.1 304.4 454.8 304.1 454.8 303.7C454.8 303.3 455.1 303 455.5 303H498.4C498.8 303 499.1 303.3 499.1 303.7C499.1 304 498.8 304.4 498.4 304.4ZM598.1 304.4H516.2C515.8 304.4 515.5 304.1 515.5 303.7C515.5 303.3 515.8 303 516.2 303H598.1C598.5 303 598.8 303.3 598.8 303.7C598.8 304 598.5 304.4 598.1 304.4Z" fill="#51B6FF"/>
<path d="M721.9 304.4H645.1C644.7 304.4 644.4 304.1 644.4 303.7C644.4 303.3 644.7 303 645.1 303H721.9C722.3 303 722.6 303.3 722.6 303.7C722.6 304 722.3 304.4 721.9 304.4ZM787.8 304.4H739.3C738.9 304.4 738.6 304.1 738.6 303.7C738.6 303.3 738.9 303 739.3 303H787.8C788.2 303 788.5 303.3 788.5 303.7C788.6 304 788.2 304.4 787.8 304.4Z" fill="#51B6FF"/>
<path d="M1278 304.4H809C807.9 304.4 807 304.1 807 303.7C807 303.3 807.9 303 809 303H1278C1279.1 303 1280 303.3 1280 303.7C1280 304 1279.1 304.4 1278 304.4Z" fill="#51B6FF"/>
<path d="M1198 271.9C1189.7 271.9 1182.9 278.6 1182.9 286.8C1182.9 295.1 1189.7 301.9 1198 301.9C1206.2 301.9 1212.9 295.1 1212.9 286.8C1212.9 278.6 1206.2 271.9 1198 271.9ZM1198 303.4C1188.9 303.4 1181.4 296 1181.4 286.8C1181.4 277.8 1188.8 270.4 1198 270.4C1207.1 270.4 1214.4 277.8 1214.4 286.8C1214.4 295.9 1207.1 303.4 1198 303.4Z" fill="#51B6FF"/>
<path d="M1254.2 271.9C1245.9 271.9 1239.1 278.7 1239.1 287C1239.1 295.2 1245.9 301.9 1254.2 301.9C1262.4 301.9 1269.1 295.2 1269.1 287C1269.1 278.6 1262.4 271.9 1254.2 271.9ZM1254.2 303.4C1245.1 303.4 1237.6 296 1237.6 287C1237.6 277.9 1245 270.4 1254.2 270.4C1263.3 270.4 1270.6 277.8 1270.6 287C1270.6 296 1263.3 303.4 1254.2 303.4Z" fill="#51B6FF"/>
<path d="M1198 287.3C1197.9 287.3 1197.8 287.3 1197.6 287.2C1197.2 287 1197.1 286.6 1197.3 286.2L1209.1 264.5C1206.6 264.4 1201.4 263.9 1199.8 260.5C1199.6 260.1 1199.8 259.7 1200.1 259.5C1200.5 259.3 1200.9 259.5 1201.1 259.8C1202.8 263.3 1210.2 262.9 1210.3 262.9C1210.6 262.8 1210.8 263 1211 263.2C1211.1 263.4 1211.2 263.7 1211 264L1198.6 286.8C1198.5 287.1 1198.3 287.3 1198 287.3Z" fill="#51B6FF"/>
<path d="M1238.1 272.3L1210.1 270.2C1209.7 270.2 1209.4 269.8 1209.4 269.4C1209.4 269 1209.7 268.7 1210.1 268.7C1210.1 268.7 1210.1 268.7 1210.2 268.7L1238.2 270.8C1238.6 270.8 1238.9 271.2 1238.9 271.6C1238.8 272 1238.5 272.3 1238.1 272.3Z" fill="#51B6FF"/>
<path d="M1239.4 277.2C1239.3 277.2 1239.2 277.2 1239 277.1C1238.6 276.9 1238.5 276.5 1238.7 276.1C1240.2 273.3 1243.4 269.6 1244.5 268.7C1244.9 268.4 1245.2 268 1262.9 269.1C1263.3 269.1 1263.6 269.5 1263.6 269.9C1263.6 270.3 1263.2 270.6 1262.9 270.6C1262.9 270.6 1262.9 270.6 1262.8 270.6C1249.2 269.7 1246 269.8 1245.4 269.9C1244.3 270.9 1241.4 274.4 1240 276.9C1239.9 277.1 1239.7 277.2 1239.4 277.2Z" fill="#51B6FF"/>
<path d="M1224.3 287.5C1224.1 287.5 1223.9 287.4 1223.7 287.2L1209.5 269.9C1209.2 269.6 1209.3 269.1 1209.6 268.9C1209.9 268.6 1210.4 268.7 1210.6 269L1224.8 286.3C1225.1 286.6 1225 287.1 1224.7 287.3C1224.7 287.5 1224.5 287.5 1224.3 287.5Z" fill="#51B6FF"/>
<path d="M1243 266.6C1242.8 266.6 1242.6 266.5 1242.4 266.3C1242.1 266 1242.2 265.5 1242.5 265.3L1246.6 262.2C1244.2 262.6 1242.1 262.8 1239.7 262.7L1240.1 262.9C1240.5 263 1240.7 263.5 1240.6 263.8C1240.5 264.2 1240 264.4 1239.7 264.3L1234.2 262.4C1233.8 262.3 1233.6 261.9 1233.7 261.5C1233.8 261.1 1234.1 261 1234.5 260.9C1240.3 261.5 1244.1 261.3 1249.4 260.2C1249.7 260.1 1250.1 260.3 1250.2 260.6C1250.3 260.9 1250.3 261.3 1250 261.5L1243.5 266.5C1243.3 266.5 1243.1 266.6 1243 266.6Z" fill="#51B6FF"/>
<path d="M1227.6 286.8C1225.6 286.8 1224 288.4 1224 290.3C1224 292.2 1225.6 293.8 1227.6 293.8C1229.6 293.8 1231.1 292.2 1231.1 290.3C1231.1 288.4 1229.5 286.8 1227.6 286.8ZM1227.6 295.4C1224.8 295.4 1222.6 293.1 1222.6 290.4C1222.6 287.7 1224.9 285.4 1227.6 285.4C1230.4 285.4 1232.6 287.7 1232.6 290.4C1232.6 293.1 1230.4 295.4 1227.6 295.4Z" fill="#51B6FF"/>
<path d="M1229.7 287.4C1229.6 287.4 1229.4 287.4 1229.3 287.3C1228.9 287.1 1228.8 286.6 1229 286.3L1242.5 262.9C1242.7 262.5 1243.2 262.4 1243.5 262.6C1243.8 262.8 1244 263.3 1243.8 263.6L1230.3 287C1230.2 287.3 1229.9 287.4 1229.7 287.4Z" fill="#51B6FF"/>
<path d="M1222.6 299.1C1222.5 299.1 1222.3 299.1 1222.2 299C1221.8 298.8 1221.7 298.3 1222 298L1227.2 289.7C1227.4 289.3 1227.9 289.2 1228.2 289.5C1228.5 289.7 1228.7 290.2 1228.4 290.5L1223.2 298.8C1223 298.9 1222.8 299.1 1222.6 299.1Z" fill="#51B6FF"/>
<path d="M1227 301.1C1226.9 301.1 1226.8 301.1 1226.7 301L1218 297.2C1217.6 297 1217.5 296.6 1217.6 296.2C1217.8 295.8 1218.2 295.7 1218.6 295.8L1227.3 299.6C1227.7 299.8 1227.8 300.2 1227.7 300.6C1227.5 301 1227.3 301.1 1227 301.1Z" fill="#51B6FF"/>
<path d="M1198 287.5C1197.6 287.5 1197.3 287.2 1197.3 286.8V273.3C1197.3 272.9 1197.6 272.6 1198 272.6C1198.4 272.6 1198.7 272.9 1198.7 273.3V286.8C1198.7 287.2 1198.4 287.5 1198 287.5Z" fill="#51B6FF"/>
<path d="M1198 287.5C1197.8 287.5 1197.6 287.4 1197.5 287.3C1197.2 287 1197.2 286.5 1197.5 286.3L1207 276.8C1207.3 276.5 1207.8 276.5 1208 276.8C1208.3 277.1 1208.3 277.6 1208 277.8L1198.5 287.3C1198.4 287.5 1198.2 287.5 1198 287.5Z" fill="#51B6FF"/>
<path d="M1211.3 287.7L1198 287.6C1197.6 287.6 1197.3 287.3 1197.3 286.8C1197.3 286.4 1197.7 286 1198.1 286.1L1211.4 286.2C1211.8 286.2 1212.1 286.5 1212.1 287C1212 287.4 1211.7 287.7 1211.3 287.7Z" fill="#51B6FF"/>
<path d="M1207.3 297.2C1207.1 297.2 1206.9 297.1 1206.8 297L1197.5 287.4C1197.2 287.1 1197.2 286.6 1197.5 286.4C1197.8 286.1 1198.3 286.1 1198.5 286.4L1207.8 296C1208.1 296.3 1208.1 296.8 1207.8 297C1207.7 297.1 1207.5 297.2 1207.3 297.2Z" fill="#51B6FF"/>
<path d="M1197.9 301C1197.5 301 1197.2 300.7 1197.2 300.2L1197.3 286.7C1197.3 286.3 1197.7 285.9 1198.1 286C1198.5 286 1198.8 286.3 1198.8 286.8L1198.7 300.3C1198.6 300.7 1198.3 301 1197.9 301Z" fill="#51B6FF"/>
<path d="M1188.4 297C1188.2 297 1188 296.9 1187.9 296.8C1187.6 296.5 1187.6 296 1187.9 295.8L1197.5 286.3C1197.8 286 1198.3 286 1198.5 286.3C1198.8 286.6 1198.8 287.1 1198.5 287.3L1188.9 296.8C1188.8 296.9 1188.6 297 1188.4 297Z" fill="#51B6FF"/>
<path d="M1198 287.5L1184.5 287.4C1184.1 287.4 1183.8 287.1 1183.8 286.6C1183.8 286.2 1184.1 285.9 1184.6 285.9L1198.1 286C1198.5 286 1198.8 286.3 1198.8 286.8C1198.7 287.2 1198.4 287.5 1198 287.5Z" fill="#51B6FF"/>
<path d="M1198 287.5C1197.8 287.5 1197.6 287.4 1197.5 287.3L1188 277.7C1187.7 277.4 1187.7 276.9 1188 276.7C1188.3 276.4 1188.8 276.4 1189 276.7L1198.5 286.3C1198.8 286.6 1198.8 287.1 1198.5 287.3C1198.4 287.5 1198.2 287.5 1198 287.5Z" fill="#51B6FF"/>
<path d="M1254.2 287.7C1253.8 287.7 1253.5 287.4 1253.5 286.9L1253.6 273.5C1253.6 273.1 1253.9 272.8 1254.4 272.8C1254.8 272.8 1255.1 273.1 1255.1 273.6L1255 287C1254.9 287.4 1254.6 287.7 1254.2 287.7Z" fill="#51B6FF"/>
<path d="M1254.2 287.7C1254 287.7 1253.8 287.6 1253.7 287.5C1253.4 287.2 1253.4 286.7 1253.7 286.5L1263.3 277C1263.6 276.7 1264.1 276.7 1264.3 277C1264.6 277.3 1264.6 277.8 1264.3 278L1254.7 287.5C1254.6 287.6 1254.4 287.7 1254.2 287.7Z" fill="#51B6FF"/>
<path d="M1267.7 287.8L1254.2 287.6C1253.8 287.6 1253.5 287.3 1253.5 286.8C1253.5 286.4 1253.8 286.1 1254.2 286.1L1267.7 286.3C1268.1 286.3 1268.4 286.6 1268.4 287.1C1268.4 287.5 1268.1 287.8 1267.7 287.8Z" fill="#51B6FF"/>
<path d="M1263.5 297.3C1263.3 297.3 1263.1 297.2 1263 297.1L1253.7 287.5C1253.4 287.2 1253.4 286.7 1253.7 286.5C1254 286.2 1254.5 286.2 1254.7 286.5L1264 296.1C1264.3 296.4 1264.3 296.9 1264 297.1C1263.9 297.2 1263.7 297.3 1263.5 297.3Z" fill="#51B6FF"/>
<path d="M1254.1 301.1C1253.7 301.1 1253.4 300.8 1253.4 300.3L1253.5 286.8C1253.5 286.4 1253.8 286.1 1254.2 286.1C1254.6 286.1 1254.9 286.4 1254.9 286.9L1254.8 300.4C1254.8 300.8 1254.5 301.1 1254.1 301.1Z" fill="#51B6FF"/>
<path d="M1244.6 297.2C1244.4 297.2 1244.2 297.1 1244.1 297C1243.8 296.7 1243.8 296.2 1244.1 296L1253.7 286.5C1254 286.2 1254.5 286.2 1254.7 286.5C1255 286.8 1255 287.3 1254.7 287.5L1245.1 297C1245 297.1 1244.8 297.2 1244.6 297.2Z" fill="#51B6FF"/>
<path d="M1254.2 287.7L1240.7 287.6C1240.3 287.6 1240 287.3 1240 286.8C1240 286.4 1240.4 286 1240.8 286.1L1254.3 286.2C1254.7 286.2 1255 286.5 1255 287C1254.9 287.4 1254.6 287.7 1254.2 287.7Z" fill="#51B6FF"/>
<path d="M1254.2 287.7C1254 287.7 1253.8 287.6 1253.7 287.5L1244.2 277.9C1243.9 277.6 1243.9 277.1 1244.2 276.9C1244.5 276.6 1245 276.6 1245.2 276.9L1254.7 286.5C1255 286.8 1255 287.3 1254.7 287.5C1254.6 287.6 1254.4 287.7 1254.2 287.7Z" fill="#51B6FF"/>
<path d="M807.9 304.2C807.5 304.2 807.2 303.9 807.2 303.5V219.2C806 212.1 797.6 207 790.9 204.8C790.5 204.7 790.3 204.3 790.4 203.9C790.5 203.5 790.9 203.3 791.3 203.4C798.5 205.7 807.3 211.2 808.7 219.1V303.5C808.7 303.9 808.4 304.2 807.9 304.2Z" fill="#51B6FF"/>
<path d="M825 204.8C823 205.4 820.8 206.3 818.8 207.5C818.5 207.7 818.2 207.9 817.9 208C816.9 208.6 816 209.2 815.1 209.9C811.9 212.4 809.4 215.5 808.7 219.3C808.6 219.7 808.3 219.9 808 219.9H807.9C807.5 219.8 807.3 219.5 807.3 219.2V219.1C807.5 218.2 807.7 217.3 808 216.5C809.6 212.5 813.1 209.3 817 206.9C817.4 206.7 817.8 206.4 818.2 206.2C820.3 205 822.5 204.1 824.6 203.4C824.7 203.4 824.8 203.4 824.9 203.4C825.2 203.4 825.4 203.6 825.5 203.9C825.6 204.3 825.4 204.7 825 204.8Z" fill="#51B6FF"/>
<path d="M798.7 212.4C798.3 213.3 797.5 214 796.6 214.4C795.7 214.8 794.7 214.7 793.8 214.3L788 211.8C786 210.9 785.2 208.8 786 206.9C786.6 205.5 788 204.7 789.4 204.7C789.9 204.7 790.5 204.8 791 205L796.7 207.5C798.6 208.4 799.4 210.5 798.7 212.4ZM800.2 209.5C799.8 208.1 798.8 206.8 797.3 206.1L791.5 203.6C791.3 203.5 791.2 203.5 791 203.4C788.5 202.6 785.8 203.7 784.6 206.2C783.4 208.9 784.6 211.9 787.3 213.1L793.1 215.6C793.8 215.9 794.5 216.1 795.2 216.1C795.8 216.1 796.4 216 797 215.8C798.3 215.3 799.3 214.3 799.9 213C800.5 211.8 800.5 210.6 800.2 209.5Z" fill="#51B6FF"/>
<path d="M827.5 211.9L821.6 214.4C820.7 214.8 819.7 214.8 818.8 214.5C817.9 214.1 817.2 213.5 816.8 212.6C816.1 211 816.6 209.2 817.9 208.1C818.1 207.9 818.4 207.8 818.6 207.7L818.8 207.6L824.5 205.2C825 205 825.5 204.9 826 204.9C826.5 204.9 826.9 205 827.3 205.2C828.2 205.6 828.9 206.2 829.2 207.1C830.2 208.9 829.4 211 827.5 211.9ZM830.7 206.4C830.2 205.1 829.2 204.2 827.9 203.7C826.9 203.3 825.9 203.2 824.9 203.5C824.6 203.6 824.2 203.7 823.9 203.8L818.2 206.2L818 206.3C817.6 206.5 817.3 206.7 817 206.9C816 207.7 815.3 208.8 815 210C814.8 211 814.9 212.1 815.4 213.2C815.9 214.4 816.9 215.4 818.2 215.9C818.8 216.1 819.4 216.3 820.1 216.3C820.8 216.3 821.5 216.1 822.2 215.8L828.1 213.3C830.7 212 831.8 209 830.7 206.4Z" fill="#51B6FF"/>
<path d="M429.9 167.9C428.5 167.9 427.2 169 426.9 170.4L426.8 171L426.2 171.1C425.3 171.2 424.5 172.2 424.5 173.2C424.5 174.2 425.5 175.1 426.6 175.1H436.2C437.1 175.1 437.6 174.5 437.6 173.8C437.6 173.2 437.3 172.5 436.3 172.4L435.6 172.3V171.3C435.6 170.7 435.2 170.3 434.6 170.3C434.2 170.3 434.1 170.3 434.1 170.4L433.2 171.3L432.8 170.1C432.5 168.8 431.2 167.9 429.9 167.9ZM436.2 176.5H426.6C424.7 176.5 423 174.9 423 173.1C423 171.5 424.1 170.1 425.5 169.7C426 167.8 427.8 166.5 429.8 166.5C431.5 166.5 433.1 167.5 433.9 168.9C435.6 168.6 436.9 169.6 437 171.1C438.4 171.5 439.1 172.8 439 173.9C439 175.2 438 176.5 436.2 176.5Z" fill="#51B6FF"/>
<path d="M849.8 239C848.1 240.5 847.2 242.5 847 244.8V294.4C847.4 297 848.3 299.2 850 300.7C851.5 302 853.2 302.9 855.4 302.9H856.3C858.9 302.7 860.8 301.8 862.4 300.1C863.9 298.4 864.8 296.4 864.8 293.8V245.5C864.6 243.1 863.7 241 862.2 239.2C860.7 237.5 858.5 236.6 856.1 236.6C853.5 236.6 851.5 237.5 849.8 239ZM899.2 255.7C901.4 254.6 903.5 254 906.3 254C908.9 254 911.3 254.6 913.2 255.7C915.4 256.8 917.1 258.7 918.6 261.8H893.7C895.3 258.9 897 257 899.2 255.7ZM893.3 239C889.2 240.7 885.7 243.3 882.7 246.4C879.7 249.4 877.3 253.1 875.6 257C873.9 261.1 873 265.2 873 269.6C873 273.9 873.9 278.3 875.6 282.4C877.3 286.5 879.7 290.2 883 293.2C886 296.2 889.7 298.6 893.6 300.6C897.7 302.3 901.8 303.2 906.2 303C909.7 303 912.7 302.6 915.7 301.7C918.7 300.8 921.5 299.5 923.9 297.6C925.2 296.1 926.1 294.6 926.3 292.8C926.5 291.1 926.3 289.3 925.7 287.8C925.1 286.3 924 285 922.5 284.1C921 283 919.5 282.6 917.5 282.4C916.4 282.4 915.6 282.6 914.9 282.8C914 283 913.4 283.4 912.5 283.7C911.6 284.1 910.8 284.3 909.9 284.6C908.8 284.8 907.7 285 906.2 285C900.8 285 896.7 282.4 893.6 277.2H930.2C932.8 277.2 935 276.6 936.9 275.3C938.6 274 939.5 272.1 939.5 269.7C939.5 265.4 938.6 261 936.7 257.1C935 253.2 932.4 249.5 929.3 246.5C926.3 243.5 922.6 241.1 918.7 239.1C914.6 237.4 910.5 236.3 906.1 236.3C901.7 236.2 897.4 237.1 893.3 239ZM966 239C961.9 240.7 958.4 243.3 955.4 246.4C952.4 249.4 950 252.9 948 257C946.3 261.1 945.4 265.2 945.4 269.6C945.4 274.1 946.3 278.3 948 282.4C949.7 286.5 952.1 290 955.1 293C958.1 296 961.6 298.4 965.7 300.1C969.8 301.8 973.9 302.7 978.7 302.7C983.5 302.7 987.6 301.8 991.5 300.3C995.4 298.6 998.9 296.2 1002.1 292.9C1002.7 292 1003.4 291.2 1003.8 290.1C1004.2 289 1004.2 287.9 1004.2 286.9C1004.2 285.8 1004 284.7 1003.6 283.7C1003.2 282.7 1002.5 281.8 1001.7 281.1C1000 279.4 998 278.3 995.4 278.3C992.8 278.3 990.6 279.2 989.1 281.1C986.1 283.7 982.8 285 978.7 285C976.5 285 974.6 284.8 972.9 283.9C971.2 283 969.4 282 967.9 280.4C966.4 278.9 965.3 277.4 964.4 275.4C963.5 273.5 963.1 271.5 963.1 269.3C963.1 267.4 963.5 265.4 964.4 263.5C965.3 261.8 966.3 260 967.9 258.7C969.4 257.2 970.9 256.1 972.9 255.2C974.8 254.3 976.8 253.9 979 253.9C982.9 253.9 986.4 255.2 989.2 257.8C990.9 259.5 992.9 260.4 995.5 260.2C998.1 260.2 1000.3 259.3 1001.8 257.8C1003.5 256.3 1004.4 254.3 1004.4 252C1004.6 249.6 1003.8 247.7 1002.2 245.9C995.7 239.4 988.1 236.4 978.8 236.4C974.5 236.2 970.1 237.1 966 239ZM1121.6 283.6C1119.9 282.7 1118.1 281.7 1116.6 280.4C1115.1 279.1 1114 277.4 1113.1 275.6C1112.2 273.7 1111.8 271.7 1111.8 269.5C1111.8 267.6 1112.2 265.6 1113.1 263.7C1114 261.8 1115 260.2 1116.6 258.7C1118.2 257.2 1119.6 256.1 1121.6 255.2C1123.3 254.3 1125.3 253.9 1127.4 253.9C1129.3 253.9 1131.3 254.3 1133.2 255.2C1135.1 256.1 1136.7 257.1 1138.2 258.7C1139.7 260.3 1140.8 261.7 1141.7 263.7C1142.6 265.6 1143 267.6 1143 269.5C1143 271.7 1142.6 273.8 1141.7 275.6C1140.8 277.5 1139.8 279.1 1138.5 280.6C1137.2 281.9 1135.5 283 1133.7 283.8C1131.8 284.7 1129.8 284.9 1127.6 284.9C1125.3 284.9 1123.6 284.5 1121.6 283.6ZM1127.5 236.2C1120.6 236.2 1114.5 237.9 1109.1 241.6C1103.7 245.3 1099.6 250 1097 256.1C1096.1 258.3 1095.3 260.4 1094.8 262.6C1094.4 264.8 1094.2 267.1 1094.2 269.5C1094.2 271.9 1094.4 274.3 1094.8 276.4C1095.2 278.6 1096.1 280.7 1097 282.9C1099.6 288.7 1103.7 293.5 1109.1 297.2C1114.5 300.9 1120.6 302.8 1127.5 302.8C1130.1 302.8 1132.7 302.6 1135.1 301.9C1137.5 301.3 1139.6 300.6 1141.8 299.5C1142.2 299.3 1142.4 299.1 1142.9 298.9C1143.3 298.7 1143.8 298.5 1144.2 298.3C1146.1 301.3 1148.7 302.6 1152 302.6C1154.4 302.6 1156.3 301.7 1158.3 300C1160 298.5 1160.9 296.5 1161.1 294.2V268.4C1161.1 264.5 1160.2 260.8 1158.9 257.4C1157.4 253.5 1155.4 250.3 1152.6 247.2C1150 244.2 1147 241.8 1143.3 239.8C1139.6 237.9 1135.7 236.8 1131.6 236.3C1131 236.3 1130.3 236.1 1129.7 236.1C1129.6 236.2 1127.5 236.2 1127.5 236.2ZM849.8 218.2C847.9 219.7 847 221.7 847 224C847 227 847.9 229.2 849.6 230.7C851.3 232.2 853.5 233.1 856.1 233.3C858.5 233.3 860.4 232.4 862.2 230.7C863.9 229 864.8 226.8 864.8 224.4C864.8 222 863.9 219.9 862.2 218.1C860.5 216.4 858.3 215.5 855.9 215.5C853.5 215.5 851.5 216.5 849.8 218.2ZM1031.8 282.7C1030.1 281 1029.2 278.8 1029.2 276.4C1029.2 274.2 1029.8 272.5 1031.1 270.8C1032.4 269.3 1034.1 268.2 1036.1 267.6L1048.4 278.6L1044.5 282.9C1042.8 284.6 1040.6 285.5 1038.2 285.5C1035.7 285.3 1033.5 284.5 1031.8 282.7ZM1033.3 243.8C1032 242.3 1031.4 240.8 1031.4 239.3C1031.4 237.4 1032 235.8 1033.3 234.3C1034.6 233 1036.3 232.1 1038.1 232.1C1040 232.1 1041.6 232.7 1043.1 234.3C1044.4 235.6 1045.3 237.3 1045.3 239.3C1045.3 241.3 1044.7 242.8 1043.1 244.1C1041.8 245.4 1040.1 246 1038.1 246C1036.1 246 1034.4 245.3 1033.3 243.8ZM1029 217C1026 218.3 1023.4 220 1021.2 222.2C1019 224.4 1017.3 227 1016 229.8C1014.7 232.8 1014.1 235.9 1014.1 239.1C1014.1 242.6 1014.7 245.6 1016 248.4C1017.3 251.2 1019 253.8 1021.2 256C1018.2 258.8 1016 261.8 1014.5 265.1C1013 268.3 1012.3 271.8 1012.1 275.3C1012.1 278.8 1012.5 282 1013.6 285.3C1014.7 288.6 1016.4 291.4 1018.6 294C1020.8 296.6 1023.6 298.5 1026.8 300.3C1030 301.8 1033.7 302.7 1037.8 302.7C1041.3 302.7 1044.5 302.1 1047.5 301C1050.5 299.9 1053.1 298.2 1055.5 296L1060.9 289.7L1073.7 300.7C1075.4 302.2 1077.4 303.1 1079.8 302.9C1082.2 302.9 1084.1 301.8 1085.9 300.1C1087.4 298.4 1088.1 296.2 1088.1 293.8C1087.9 291.4 1087 289.5 1085.3 288L1072.3 277L1079.2 269.2C1080.7 267.5 1081.6 265.3 1081.4 262.9C1081.4 260.5 1080.3 258.6 1078.6 257.1C1076.9 255.6 1074.9 254.7 1072.5 254.9C1070.1 254.9 1068.2 256 1066.7 257.7L1059.6 265.7L1052.2 259.2C1052.6 258.8 1053.1 258.3 1053.7 257.9C1054.3 257.5 1054.8 257 1055.4 256.6C1059.1 252.7 1061.2 248.4 1061.9 243.8C1062.5 239 1061.9 234.7 1060.2 230.4C1058.5 226.3 1055.7 222.6 1052 219.8C1048.1 217 1043.8 215.5 1038.6 215.5C1035.1 215.2 1031.8 215.7 1029 217Z" stroke="#51B6FF" stroke-width="1.5" stroke-miterlimit="10"/>
</g>
<defs>
<clipPath id="clip0_689_2">
<rect width="1280" height="304" fill="white"/>
</clipPath>
</defs>
</svg>
